<svg viewBox="0 0 20 20" fill="none" xmlns="http://www.w3.org/2000/svg"><path d="M7.892 1.355C6.99.452 5.892 0 4.624 0c-1.27 0-2.366.452-3.27 1.355C.453 2.258 0 3.355 0 4.624c0 1.268.452 2.365 1.355 3.268.903.904 2 1.355 3.269 1.355 1.268 0 2.365-.451 3.268-1.355.904-.903 1.355-2 1.355-3.268 0-1.27-.451-2.366-1.355-3.27zm-3.268 1.44c.494 0 .924.173 1.29.538.366.366.538.796.538 1.29 0 .495-.172.925-.538 1.291a1.755 1.755 0 0 1-1.29.538c-.495 0-.925-.172-1.29-.538a1.755 1.755 0 0 1-.538-1.29c0-.495.172-.925.537-1.29a1.755 1.755 0 0 1 1.29-.538zm14.021 15.85c.903-.903 1.355-2 1.355-3.269 0-1.268-.452-2.365-1.355-3.268-.903-.904-2-1.355-3.269-1.355-1.268 0-2.365.451-3.268 1.354-.904.904-1.355 2-1.355 3.27 0 1.268.451 2.365 1.354 3.268.904.903 2 1.355 3.27 1.355 1.268 0 2.365-.452 3.268-1.355zm-1.44-3.269c0 .495-.173.925-.538 1.29a1.755 1.755 0 0 1-1.29.538c-.495 0-.925-.172-1.291-.537a1.755 1.755 0 0 1-.538-1.29c0-.495.172-.925.538-1.291a1.755 1.755 0 0 1 1.29-.538c.495 0 .925.172 1.29.538.366.366.538.796.538 1.29zm.386-10.688c.323-.322.473-.688.473-1.14 0-.451-.15-.817-.473-1.14a1.526 1.526 0 0 0-1.14-.473c-.451 0-.817.151-1.14.474L2.41 15.312a1.526 1.526 0 0 0-.474 1.14c0 .451.151.817.474 1.14.322.322.688.473 1.14.473.451 0 .817-.151 1.14-.474l12.9-12.903z" fill="#9DAFC3"/></svg>