<svg width="21" height="24" fill="none" xmlns="http://www.w3.org/2000/svg"><path d="M0 21.75A2.25 2.25 0 0 0 2.25 24h16.5A2.25 2.25 0 0 0 21 21.75V9H0v12.75zm15-9.188c0-.309.253-.562.563-.562h1.874c.31 0 .563.253.563.563v1.874c0 .31-.253.563-.563.563h-1.875a.564.564 0 0 1-.562-.563v-1.874zm0 6c0-.309.253-.562.563-.562h1.874c.31 0 .563.253.563.563v1.875a.564.564 0 0 1-.563.562h-1.875a.564.564 0 0 1-.562-.563v-1.875zm-6-6c0-.309.253-.562.563-.562h1.874c.31 0 .563.253.563.563v1.874c0 .31-.253.563-.563.563H9.563A.564.564 0 0 1 9 14.437v-1.874zm0 6c0-.309.253-.562.563-.562h1.874c.31 0 .563.253.563.563v1.875a.564.564 0 0 1-.563.562H9.563A.564.564 0 0 1 9 20.437v-1.875zm-6-6c0-.309.253-.562.563-.562h1.874c.31 0 .563.253.563.563v1.874c0 .31-.253.563-.563.563H3.563A.564.564 0 0 1 3 14.437v-1.874zm0 6c0-.309.253-.562.563-.562h1.874c.31 0 .563.253.563.563v1.875a.564.564 0 0 1-.563.562H3.563A.564.564 0 0 1 3 20.437v-1.875zM18.75 3H16.5V.75a.752.752 0 0 0-.75-.75h-1.5a.752.752 0 0 0-.75.75V3h-6V.75A.752.752 0 0 0 6.75 0h-1.5a.752.752 0 0 0-.75.75V3H2.25A2.25 2.25 0 0 0 0 5.25V7.5h21V5.25A2.25 2.25 0 0 0 18.75 3z" fill="#BABBC0"/></svg>