<svg viewBox="0 0 21 20" fill="none" xmlns="http://www.w3.org/2000/svg"><path d="M12.985 1.808L2.708 12.085c-.492.615-.677 4.43 0 5.107.677.677 4.554.493 5.17 0l11.2-11.076c.615-.616.553-1.108 0-1.662l-1.723-1.723c-.616-.615-1.17-.554-1.724 0l-8.246 8.061c-.554.554-.615 1.785-.369 2.093.308.184 1.539.184 2.092-.37l7.323-7.261.862.862-7.323 7.261c-.985.985-3.015 1.17-3.815.37-.8-.8-.616-2.832.43-3.816l8.123-8.123c1.046-1.046 2.277-1.108 3.446 0l1.724 1.723c1.107 1.108 1.107 2.338 0 3.385l-11.2 11.076c-.985.985-5.785 1.108-6.893 0-1.107-1.107-.984-5.846 0-6.83L12.124 1.008l.861.8z" fill="#9DAFC3" stroke="#9DAFC3" stroke-width=".5" stroke-miterlimit="10"/></svg>