<svg viewBox="0 0 56 11" fill="none" xmlns="http://www.w3.org/2000/svg"><path d="M10.956 4.133H8.194l1.38-2.342A1.18 1.18 0 0 0 9.118.166a1.226 1.226 0 0 0-1.654.437L6.083 2.934 4.702.592A1.226 1.226 0 0 0 3.036.166a1.19 1.19 0 0 0-.445 1.625l1.38 2.342h-2.75C.548 4.133 0 4.671 0 5.333c0 .66.548 1.198 1.221 1.198h2.762L2.602 8.874a1.193 1.193 0 0 0 1.05 1.793c.434 0 .833-.224 1.061-.594L6.094 7.73l1.381 2.342c.217.37.616.594 1.061.594.217 0 .423-.056.605-.157a1.19 1.19 0 0 0 .445-1.636L8.206 6.52h2.75a1.21 1.21 0 0 0 1.22-1.199c0-.65-.547-1.188-1.22-1.188zm14.608 0h-2.762l1.38-2.342a1.18 1.18 0 0 0-.456-1.625 1.226 1.226 0 0 0-1.655.437l-1.38 2.342L19.31.592a1.226 1.226 0 0 0-1.667-.426 1.19 1.19 0 0 0-.445 1.625l1.381 2.342h-2.762c-.673 0-1.22.538-1.22 1.2 0 .66.547 1.198 1.22 1.198h2.762L17.2 8.874a1.193 1.193 0 0 0 1.05 1.793c.433 0 .832-.224 1.06-.594l1.38-2.343 1.381 2.342c.217.37.617.594 1.062.594.216 0 .422-.056.605-.157a1.19 1.19 0 0 0 .445-1.636L22.802 6.53h2.762a1.21 1.21 0 0 0 1.22-1.199c0-.66-.547-1.199-1.22-1.199zm14.607 0H37.41l1.381-2.342c.331-.572.126-1.3-.456-1.625a1.226 1.226 0 0 0-1.655.437L35.3 2.945 33.916.592A1.226 1.226 0 0 0 32.25.166a1.19 1.19 0 0 0-.445 1.625l1.38 2.342h-2.76c-.674 0-1.222.538-1.222 1.2 0 .66.548 1.198 1.221 1.198h2.762l-1.381 2.343a1.193 1.193 0 0 0 1.05 1.793c.434 0 .833-.224 1.061-.594l1.381-2.342 1.381 2.342c.217.37.616.594 1.061.594.217 0 .423-.056.605-.157a1.19 1.19 0 0 0 .445-1.636L37.41 6.53h2.761c.673 0 1.221-.538 1.221-1.199 0-.66-.548-1.199-1.22-1.199zm14.608 0h-2.762l1.381-2.342c.331-.572.125-1.3-.457-1.625a1.226 1.226 0 0 0-1.654.437l-1.381 2.342L48.525.592a1.226 1.226 0 0 0-1.666-.426 1.19 1.19 0 0 0-.445 1.625l1.38 2.342h-2.761c-.674 0-1.221.538-1.221 1.2 0 .66.547 1.198 1.22 1.198h2.763l-1.381 2.343a1.193 1.193 0 0 0 1.05 1.793c.433 0 .833-.224 1.061-.594l1.38-2.342 1.382 2.342c.217.37.616.594 1.061.594.217 0 .422-.056.605-.157a1.19 1.19 0 0 0 .445-1.636l-1.38-2.343h2.76c.674 0 1.222-.538 1.222-1.199 0-.66-.548-1.199-1.221-1.199z" fill="#fff"/><path d="M10.956 6.52H1.22C.548 6.52 0 5.982 0 5.332c0-.65.548-1.199 1.221-1.199h9.735c.673 0 1.22.538 1.22 1.2 0 .65-.547 1.187-1.22 1.187z" fill="#fff"/><path d="M3.652 10.667a1.212 1.212 0 0 1-1.221-1.2c0-.212.057-.414.16-.593L7.464.592A1.234 1.234 0 0 1 9.14.222a1.17 1.17 0 0 1 .422 1.558l-4.86 8.28c-.217.37-.616.606-1.05.606z" fill="#fff"/><path d="M8.525 10.667c-.434 0-.833-.224-1.05-.594L2.602 1.78c-.32-.583-.08-1.3.514-1.614a1.227 1.227 0 0 1 1.586.415l4.873 8.281c.33.572.137 1.3-.445 1.637-.183.112-.4.168-.605.168zM25.564 6.52h-9.735a1.212 1.212 0 0 1-1.221-1.199 1.21 1.21 0 0 1 1.22-1.199h9.736c.673 0 1.22.538 1.22 1.2a1.21 1.21 0 0 1-1.22 1.198z" fill="#fff"/><path d="M18.26 10.667a1.212 1.212 0 0 1-1.222-1.2c0-.212.058-.414.16-.593L22.071.592a1.234 1.234 0 0 1 1.678-.37c.536.336.719 1.009.422 1.558l-4.873 8.281a1.19 1.19 0 0 1-1.038.606z" fill="#fff"/><path d="M23.133 10.667c-.434 0-.833-.224-1.05-.594L17.21 1.79a1.19 1.19 0 0 1 .513-1.614c.56-.291 1.256-.1 1.587.415l4.873 8.282a1.193 1.193 0 0 1-1.05 1.793zM40.171 6.52h-9.735a1.212 1.212 0 0 1-1.22-1.199 1.21 1.21 0 0 1 1.22-1.199h9.735c.673 0 1.221.538 1.221 1.2 0 .66-.548 1.198-1.22 1.198z" fill="#fff"/><path d="M32.867 10.667a1.212 1.212 0 0 1-1.22-1.2c0-.212.056-.414.159-.593L36.679.592a1.234 1.234 0 0 1 1.678-.37c.536.336.719 1.009.422 1.558l-4.873 8.281a1.19 1.19 0 0 1-1.039.606z" fill="#fff"/><path d="M37.74 10.667c-.433 0-.833-.224-1.05-.594L31.817 1.79a1.19 1.19 0 0 1 .514-1.614c.56-.291 1.255-.1 1.586.415l4.873 8.282a1.193 1.193 0 0 1-1.05 1.793zM54.779 6.52h-9.735a1.212 1.212 0 0 1-1.22-1.199 1.21 1.21 0 0 1 1.22-1.199h9.735c.673 0 1.221.538 1.221 1.2 0 .66-.548 1.198-1.221 1.198z" fill="#fff"/><path d="M47.475 10.667a1.212 1.212 0 0 1-1.221-1.2c0-.212.057-.414.16-.593L51.287.592a1.234 1.234 0 0 1 1.677-.37 1.17 1.17 0 0 1 .423 1.558l-4.873 8.281a1.19 1.19 0 0 1-1.039.606z" fill="#fff"/><path d="M52.348 10.667c-.434 0-.833-.224-1.05-.594L46.425 1.79A1.19 1.19 0 0 1 46.94.177a1.227 1.227 0 0 1 1.586.415l4.873 8.282a1.193 1.193 0 0 1-1.05 1.793z" fill="#fff"/></svg>