<svg viewBox="0 0 26 27" fill="none" xmlns="http://www.w3.org/2000/svg"><path d="M11.562 7.86c-.01-1.115.886-2.031 1.98-2.037 1.114 0 1.989.89 1.989 2.031.01 1.115-.865 2.031-1.953 2.047-1.098.006-2-.91-2.016-2.041zm4.834 11.571a.994.994 0 0 1-.25.48c-.726.76-1.602 1.206-2.653 1.223-.472.01-.955.026-1.411-.076-1.2-.253-1.878-1.288-1.687-2.505.228-1.465.488-2.914.737-4.374.075-.442.165-.878.223-1.32.027-.156.01-.334-.016-.485-.053-.302-.201-.43-.488-.48-.16-.015-.313-.01-.462-.048-.185-.054-.398-.124-.54-.232a.412.412 0 0 1 .09-.71c.148-.076.328-.114.498-.114.653-.01 1.316 0 1.963 0h1.964c.472 0 .71.243.774.722.064.48-.1.927-.185 1.385-.24 1.373-.5 2.736-.738 4.105-.085.468-.164.937-.239 1.411a2.51 2.51 0 0 0 0 .442c.085.608.425.83.993.684.175-.049.329-.15.498-.232.16-.075.313-.177.478-.242.281-.119.515.07.45.366z" fill="#0C3362"/><path d="M22.238 27h.106c1.024-.005 1.656-.28 1.92-.835.096-.2.271-.727-.174-1.325l-1.422-1.94c-.17-.22-.266-.36-.303-.463A13.322 13.322 0 0 0 26 13.252C26 5.947 20.169 0 13 0 5.826 0 0 5.942 0 13.252c0 7.3 5.826 13.242 12.995 13.242 1.406 0 2.79-.232 4.107-.68a.51.51 0 0 1 .116.044c.52.248.982.436 1.47.603.17.054.33.097.488.14l.218.06c.833.22 1.788.339 2.844.339zM12.995 1.87c6.155 0 11.17 5.106 11.17 11.382 0 3.028-1.163 5.883-3.27 8.043l-.11.113-.07.146a2.034 2.034 0 0 0-.1 1.449c.143.425.36.722.583 1.023l.806 1.105c-.8-.017-1.512-.108-2.122-.28l-.25-.065a5.056 5.056 0 0 1-.381-.108c-.409-.14-.807-.302-1.205-.49-.228-.13-.552-.226-.934-.259l-.286-.005-.149.054a10.878 10.878 0 0 1-3.693.64c-6.15 0-11.159-5.1-11.159-11.371.01-6.27 5.015-11.378 11.17-11.378z" fill="#0C3362"/></svg>