<svg viewBox="0 0 20 20" fill="none" xmlns="http://www.w3.org/2000/svg"><path d="M10 0C4.5 0 0 4.5 0 10s4.5 10 10 10 10-4.5 10-10S15.5 0 10 0zm0 17.5c-4.125 0-7.5-3.375-7.5-7.5S5.875 2.5 10 2.5s7.5 3.375 7.5 7.5-3.375 7.5-7.5 7.5z" fill="#9DAFC3"/><path fill="#9DAFC3" d="M6 8h8v1H6zm0 3h8v1H6z"/><path d="M10.538 16a4.09 4.09 0 0 0 1.987-.5A3.905 3.905 0 0 0 14 14.1l-.979-1.067a3.72 3.72 0 0 1-1.174 1.084c-.481.266-.943.4-1.385.4-.552 0-.993-.15-1.324-.45-.342-.3-.512-.695-.512-1.184 0-.333.06-.616.18-.85.11-.233.312-.46.603-.683.29-.233.717-.506 1.28-.817 1.083-.589 1.846-1.144 2.287-1.666.442-.534.663-1.161.663-1.884 0-.589-.136-1.11-.407-1.566a2.676 2.676 0 0 0-1.159-1.05C11.571 4.122 10.994 4 10.342 4a3.65 3.65 0 0 0-1.897.5c-.572.322-.983.756-1.234 1.3l1.054.867c.24-.378.541-.667.903-.867a2.181 2.181 0 0 1 1.144-.317c.522 0 .933.134 1.234.4.301.256.452.611.452 1.067 0 .278-.06.517-.18.717-.131.2-.357.416-.678.65a19.49 19.49 0 0 1-1.52.883c-.954.511-1.626 1.039-2.018 1.583-.401.534-.602 1.19-.602 1.967 0 .644.146 1.217.437 1.717.29.489.707.866 1.249 1.133.532.267 1.15.4 1.852.4z" fill="#9DAFC3"/></svg>