<svg viewBox="0 0 140 40" fill="none" xmlns="http://www.w3.org/2000/svg"><path d="M111.2 21.98c-.9 0-1.7.3-2.3.9-.6.7-.9 1.6-.9 2.5 0 .9.3 1.8.9 2.5.6.6 1.4 1 2.3.9.9 0 1.7-.3 2.3-.9.6-.7.9-1.6.9-2.5 0-.9-.3-1.8-.9-2.5-.7-.6-1.5-.9-2.3-.9z" fill="#3DA163"/><path d="M46.6 28.68h-4.1v-9.5h-3.6v9.5h-4.1v-9.5h-3.6v12.5h19v-12.5h-3.6v9.5zm-21.2-8.8c-1.1-.6-2.3-.8-3.5-.8-1.2 0-2.4.3-3.5.8-1 .5-1.9 1.3-2.4 2.3-.6 1-.9 2.1-.9 3.3 0 1.2.3 2.3.9 3.3.6 1 1.4 1.8 2.4 2.3 1.1.6 2.3.8 3.5.8 1.2 0 2.4-.3 3.5-.8 1-.5 1.8-1.3 2.4-2.3.6-1 .9-2.1.9-3.3 0-1.2-.3-2.3-.9-3.3-.6-1-1.4-1.8-2.4-2.3zm-1.2 8.1c-.6.6-1.4 1-2.3.9-.9 0-1.7-.3-2.3-.9-.6-.7-.9-1.6-.9-2.5 0-.9.3-1.8.9-2.5.6-.6 1.4-1 2.3-.9.9 0 1.7.3 2.3.9.6.7.9 1.6.9 2.5 0 .9-.3 1.8-.9 2.5zm-9.6-12.5h-3.9l-4.3 6.5H3.7v-6.5H0v16.2h3.7v-6.5h2.6l4.2 6.5h4.3l-5.5-8.4 5.3-7.8zm75.9 7.7h-3.1v-4h-3.6v12.4H90c1.4.1 2.9-.3 4.1-1.1 1-.8 1.5-2 1.4-3.2.1-1.2-.4-2.3-1.3-3-1.1-.8-2.4-1.2-3.7-1.1zm.8 5.5c-.5.3-1 .5-1.6.4h-2.3v-3.6h2.3c.6 0 1.1.1 1.6.4.4.3.6.8.5 1.3.1.6-.1 1.1-.5 1.5zm-28.8-8.9c-1-.5-2.2-.8-3.3-.8-1.2 0-2.3.3-3.4.8-1 .5-1.8 1.3-2.4 2.3-.6 1-.9 2.1-.9 3.3 0 1.2.3 2.3.9 3.3.6 1 1.5 1.8 2.5 2.3 1.2.6 2.4.8 3.7.8 1.9.1 3.8-.6 5.1-2l-1.9-2.1c-.4.4-.9.7-1.4.9-.6.2-1.1.3-1.7.3-.8 0-1.7-.2-2.4-.7-.6-.4-1.1-1.1-1.2-1.8h9.4c0-.6.1-.9.1-1 0-1.2-.3-2.4-.8-3.4-.5-.9-1.3-1.7-2.3-2.2zm-6.3 4.6c.1-.7.5-1.4 1-1.9.6-.5 1.3-.7 2.1-.7.7 0 1.5.2 2 .7.6.5.9 1.2 1 1.9h-6.1zm13.3-.2c0 .8-.1 1.6-.2 2.4-.1.5-.3 1-.5 1.5-.3.4-.7.6-1.2.6h-.5l-.2 3c.6.2 1.2.3 1.9.3.9 0 1.7-.3 2.3-.9.6-.7 1-1.6 1.2-2.5.3-1.3.4-2.7.5-4.1l.1-2.2h3.9v9.5h3.6v-12.6H69.8l-.3 5z" fill="#fff"/><path d="M139.5 32.98l.1-17.3c0-2-1-3.9-2.6-5.1l-5.3-8.7c-.4-.7-1.4-1-2.1-.5l-3.9 2.4-1.8-3c-.4-.7-1.4-1-2.1-.6l-15.1 9.2h-2.4c-.8 0-1.5-.7-1.6-1.5 0-.8.7-1.5 1.6-1.5h2.9c.9 0 1.6-.7 1.6-1.6 0-.9-.7-1.6-1.6-1.6h-2.9c-2.2 0-4.1 1.5-4.6 3.6-.1.2-.1.4-.1.6v.5l.2 25.3c0 3.5 2.8 6.3 6.3 6.3h27.5c2.7.1 5.1-1.6 6-4.1 0-.7 0-1.6-.1-2.4zm-13.5-8.9l3.4-4.8h3.8l-4.3 6 4.6 6.5h-4.3l-3.3-4.7H124v4.7h-3.6v-12.6h3.6v4.9h2zm-8 1.4c0 1.2-.3 2.3-.9 3.3-.6 1-1.4 1.8-2.4 2.3-1.1.6-2.3.8-3.5.8-1.2 0-2.4-.3-3.5-.8-1-.5-1.9-1.3-2.4-2.3-.6-1-.9-2.1-.9-3.3 0-1.2.3-2.3.9-3.3.6-1 1.4-1.8 2.4-2.3 1.1-.6 2.3-.8 3.5-.8 1.2 0 2.4.3 3.5.8 1 .5 1.8 1.3 2.4 2.3.6.9.9 2.1.9 3.3zm11.8-20.6l2.8 4.6h-3.7l-1.7-2.9 2.6-1.7zm-7.9-1.1l1.7 2.8c0 .1.1.2.1.2 0 .1.1.1.1.2l1.5 2.5h-12.7l9.3-5.7z" fill="#3DA163"/></svg>