<svg viewBox="0 0 109 39" fill="none" xmlns="http://www.w3.org/2000/svg"><path fill-rule="evenodd" clip-rule="evenodd" d="M103.066 15.295c0-1.158.908-2.133 2.058-2.133 1.151 0 2.059.975 2.059 2.133s-.908 2.133-2.059 2.133c-1.15.061-2.058-.914-2.058-2.133zm1.998 1.707c.848 0 1.574-.732 1.574-1.646 0-.914-.726-1.645-1.574-1.645-.848 0-1.575.731-1.575 1.645s.727 1.646 1.575 1.646zm-.242-.732h-.424v-1.889h.787c.182 0 .363 0 .484.122a.555.555 0 0 1 .243.488c0 .243-.121.426-.303.487l.363.853h-.605l-.303-.731h-.303v.67h.061zm0-1.096h.242c.121 0 .182 0 .242-.061.061-.061.121-.122.121-.244 0-.061-.06-.183-.121-.183-.06-.061-.182-.061-.242-.061h-.242v.549zM73.696.853l-.545 3.717c-1.211-.67-2.12-.914-3.088-.914-2.544 0-4.36 2.62-4.36 6.338 0 2.56 1.21 4.143 3.21 4.143.847 0 1.755-.304 2.906-.853l-.606 3.9c-1.271.366-2.059.488-3.027.488-3.694 0-5.995-2.803-5.995-7.313 0-6.093 3.148-10.298 7.75-10.298.606 0 1.09.06 1.575.183l1.453.365c.303.122.424.122.727.244zm-11.445 2.56c-.121-.061-.242-.061-.363-.061-1.09 0-1.756.609-2.846 2.254l.302-2.072h-3.027l-2.12 13.772h3.452c1.271-8.47 1.574-9.872 3.21-9.872h.241c.303-1.645.727-2.864 1.333-4.021h-.182zm-20.528 13.71c-.908.305-1.696.488-2.483.488-1.756 0-2.725-1.036-2.725-3.047 0-.366.06-.792.121-1.28l.242-1.34.182-1.097 1.514-9.384h3.391l-.424 2.01h1.756l-.484 3.352h-1.756l-.909 5.728c-.06.244-.06.427-.06.549 0 .73.363 1.035 1.15 1.035.424 0 .666-.06.909-.121l-.424 3.107zM28.219 7.861c0 1.767.787 2.925 2.604 3.84 1.392.67 1.635.913 1.635 1.522 0 .854-.606 1.28-1.938 1.28-1.03 0-1.938-.183-3.088-.548l-.485 3.168.182.061.605.122c.243.061.485.122.909.122.787.061 1.453.122 1.877.122 3.633 0 5.268-1.462 5.268-4.57 0-1.89-.666-2.986-2.422-3.84-1.453-.67-1.574-.852-1.574-1.523 0-.731.545-1.097 1.695-1.097.666 0 1.575.122 2.483.244l.484-3.169a18.191 18.191 0 0 0-3.027-.304c-3.936-.061-5.269 2.01-5.208 4.57zm72.848 9.445h-3.27l.182-1.34c-.908 1.036-1.938 1.523-3.149 1.523-2.543 0-4.178-2.255-4.178-5.728 0-4.57 2.543-8.47 5.57-8.47 1.333 0 2.302.609 3.27 1.889l.727-4.875h3.392l-2.544 17.001zm-5.086-3.23c1.635 0 2.725-1.889 2.725-4.63 0-1.768-.667-2.743-1.817-2.743-1.575 0-2.664 1.95-2.664 4.631 0 1.768.605 2.743 1.756 2.743zm-43.358 2.926a11.45 11.45 0 0 1-3.512.548c-3.815 0-5.814-2.133-5.814-6.216 0-4.753 2.544-8.226 5.995-8.226 2.846 0 4.602 1.95 4.602 5.058 0 .975-.12 2.01-.423 3.412h-6.904c-.06.244-.06.305-.06.427 0 1.645 1.03 2.437 3.028 2.437 1.21 0 2.3-.305 3.572-.853l-.484 3.413zm-1.938-8.227c.06-.305.06-.548.06-.67 0-1.097-.605-1.767-1.634-1.767-1.09 0-1.878.853-2.18 2.498h3.754v-.061zm-36.273 8.531h-3.39l1.937-13.04-4.42 13.04H6.236l-.303-12.98-2.058 12.98H.666L3.331.366h4.905l.181 10.48 3.33-10.48h5.33l-2.665 16.94zm8.841-6.154c-.363-.061-.545-.061-.787-.061-1.938 0-2.907.73-2.907 2.072 0 .853.485 1.401 1.272 1.401 1.332.061 2.362-1.402 2.422-3.412zm2.483 6.154H22.89l.06-1.462c-.847 1.158-1.998 1.645-3.633 1.645-1.877 0-3.149-1.523-3.149-3.778 0-3.352 2.24-5.302 6.056-5.302.424 0 .908.061 1.393.122.12-.487.12-.67.12-.914 0-.914-.605-1.28-2.18-1.28-.968 0-2.058.183-2.845.427l-.424.183-.303.122.484-3.108c1.696-.548 2.847-.731 4.118-.731 2.967 0 4.481 1.401 4.481 4.022 0 .67-.06 1.157-.302 2.742l-.727 4.875-.121.853-.06.731-.061.488-.06.365zm53.894-6.154c-.363-.061-.544-.061-.787-.061-1.937 0-2.967.73-2.967 2.072 0 .853.485 1.401 1.272 1.401 1.393.061 2.422-1.402 2.483-3.412zm2.483 6.154h-2.846l.06-1.462c-.847 1.158-1.998 1.645-3.632 1.645-1.878 0-3.15-1.523-3.15-3.778 0-3.352 2.241-5.302 6.056-5.302.364 0 .909.061 1.393.122.121-.487.121-.67.121-.914 0-.914-.605-1.28-2.18-1.28-.969 0-2.059.183-2.846.427l-.484.122-.303.122.484-3.108c1.696-.548 2.846-.731 4.118-.731 2.967 0 4.481 1.401 4.481 4.022 0 .67-.06 1.157-.303 2.742l-.726 4.875-.121.853-.122.67-.06.488.06.487zm9.568-13.893c-.121-.061-.242-.061-.363-.061-1.09 0-1.756.609-2.846 2.254l.302-2.072h-3.088l-2.12 13.772h3.452c1.272-8.47 1.575-9.872 3.21-9.872h.242c.303-1.645.727-2.864 1.332-4.021h-.12z" fill="#FD0C15"/><path fill-rule="evenodd" clip-rule="evenodd" d="M77.269 30.712c0 3.108-.969 4.997-2.483 4.997-1.09.061-1.756-1.218-1.756-3.047 0-2.193.969-4.692 2.543-4.692 1.272-.06 1.696 1.28 1.696 2.742zm3.391 0c0-3.473-1.696-6.215-4.905-6.215-3.694 0-6.116 3.29-6.116 8.105 0 3.473 1.453 6.337 4.905 6.337 3.573.061 6.116-2.437 6.116-8.227z" fill="#F3AE12"/><path fill-rule="evenodd" clip-rule="evenodd" d="M70.79 22.12l-.546 3.717c-1.15-.67-1.937-.913-2.846-.913-2.361 0-4.057 2.62-4.057 6.337 0 2.56 1.09 4.144 2.967 4.144.788 0 1.696-.305 2.725-.853l-.545 3.9c-1.15.365-1.937.487-2.846.487-3.451 0-5.631-2.803-5.631-7.312 0-6.094 2.967-10.299 7.266-10.299.545 0 1.03.061 1.454.183l1.332.366c.303.06.424.122.727.243zm-21.255 2.499c-.122-.061-.243-.061-.364-.061-1.03 0-1.635.61-2.664 2.255l.303-2.072h-2.907l-1.938 13.772h3.21c1.21-8.41 1.513-9.872 3.027-9.872.121 0 .121 0 .242.06.303-1.645.667-2.864 1.212-4.021l-.121-.061zM91.439 38.39H88.41l.182-1.34c-.848 1.036-1.817 1.524-2.967 1.524-2.302 0-3.876-2.255-3.876-5.729 0-4.57 2.422-8.47 5.208-8.47 1.271 0 2.18.61 3.088 1.89l.727-4.876h3.149l-2.483 17.002zm-4.784-3.229c1.514 0 2.543-1.89 2.543-4.631 0-1.768-.605-2.681-1.695-2.681-1.454 0-2.483 1.889-2.483 4.63 0 1.768.545 2.682 1.635 2.682zM19.499 38.33a9.958 9.958 0 0 1-3.27.548c-3.573 0-5.45-2.133-5.45-6.215 0-4.693 2.361-8.227 5.571-8.227 2.664 0 4.3 1.95 4.3 5.058 0 .975-.122 2.01-.424 3.412h-6.359c-.06.244-.06.305-.06.427 0 1.584.968 2.376 2.846 2.376 1.15 0 2.18-.304 3.33-.853L19.5 38.33zm-1.817-8.166c0-.305.06-.548.06-.67 0-1.097-.544-1.767-1.513-1.767-1.03 0-1.756.853-2.059 2.498h3.512v-.06zm39.967 8.166a9.958 9.958 0 0 1-3.27.548c-3.633 0-5.45-2.133-5.45-6.215 0-4.693 2.362-8.227 5.571-8.227 2.664 0 4.36 1.95 4.36 5.058 0 .975-.121 2.01-.424 3.412h-6.419c-.06.244-.06.305-.06.427 0 1.584.969 2.376 2.846 2.376 1.15 0 2.18-.304 3.33-.853l-.484 3.474zm-1.817-8.166c.06-.305.06-.548.06-.67 0-1.097-.544-1.767-1.513-1.767-1.03 0-1.756.853-2.059 2.498h3.512v-.06zm46.507 8.166a10.23 10.23 0 0 1-3.27.548c-3.573 0-5.45-2.133-5.45-6.215 0-4.693 2.422-8.227 5.632-8.227 2.664 0 4.299 1.95 4.299 5.058 0 .975-.121 2.01-.424 3.412h-6.358c-.06.244-.06.305-.06.427 0 1.584.968 2.376 2.845 2.376 1.151 0 2.18-.304 3.331-.853l-.545 3.474zm-1.817-8.166c0-.305.061-.548.061-.67 0-1.097-.545-1.767-1.514-1.767-1.03 0-1.756.853-2.059 2.498h3.512v-.06zm-90.53-4.936c-.606-.426-1.514-.792-2.665-.792-1.332 0-2.3.305-2.3 1.645 0 2.438 4.722 1.524 4.722 6.764 0 4.754-3.088 6.033-5.934 6.033-1.272 0-2.725-.426-3.754-.914l.787-3.473c.666.609 1.938.975 3.028.975 1.029 0 2.603-.305 2.603-2.072 0-2.803-4.723-1.767-4.723-6.642 0-4.449 2.786-5.79 5.45-5.79 1.514 0 2.907.244 3.754.793l-.968 3.473zM28.885 38.33c-.666.304-1.575.548-2.846.548-2.786 0-4.542-2.803-4.542-6.276 0-4.51 2.544-8.044 6.237-8.044.788 0 2.06.366 3.028.914l-.727 3.29c-.726-.487-1.453-.73-2.18-.73-1.695 0-2.967 1.584-2.967 4.387 0 1.645.909 2.986 2.301 2.986.848 0 1.454-.183 2.12-.61l-.424 3.535zm11.99-3.474c-.182 1.158-.303 2.316-.424 3.535h-3.088l.242-2.194h-.06c-.97 1.523-1.938 2.56-3.755 2.56-1.938 0-2.967-2.073-2.967-4.693 0-.914.06-1.462.242-2.864l.848-6.398h3.451l-.847 6.398c-.122.67-.243 1.402-.243 2.072 0 .792.364 1.645 1.333 1.584 1.392 0 2.24-1.706 2.482-3.778l.97-6.337h3.33l-1.514 10.115zm64.673 3.413h-.545v-2.255h-.726v-.487h1.998v.487h-.727v2.255zm3.452 0h-.484v-2.316l-.485 2.316h-.484l-.485-2.316v2.316h-.484v-2.742h.787l.424 2.193h.06l.424-2.193H109v2.742z" fill="#F3AE12"/></svg>