<svg viewBox="0 0 115 133" fill="none" xmlns="http://www.w3.org/2000/svg"><g opacity=".5"><path d="M70.437 58.245H44.548V75.76h25.89V58.245zm-12.944-30.75h21.805l-4.503 23.859H57.493v-23.86z" fill="#E2E2E2"/><path d="M57.493 27.495h-21.79l4.502 23.859h17.288v-23.86z" fill="#E2E2E2"/><path d="M57.58 45.66c12.233 0 22.15-9.908 22.15-22.13S69.814 1.401 57.58 1.401c-12.234 0-22.152 9.908-22.152 22.13 0 12.22 9.918 22.128 22.151 22.128z" fill="#E2E2E2"/><path d="M79.904 40.94c.814-4.044.314-7.555-1.116-7.842-1.43-.287-3.249 2.758-4.062 6.801-.814 4.044-.315 7.554 1.115 7.842 1.43.287 3.249-2.758 4.063-6.802zm-40.751 6.81c1.43-.288 1.929-3.799 1.115-7.842-.813-4.044-2.632-7.089-4.062-6.801-1.43.287-1.93 3.797-1.116 7.84.814 4.044 2.633 7.09 4.063 6.802z" fill="#E2E2E2"/><path d="M70.452 58.245v10.927c-9.799.721-23.292-2.162-25.89-9.053v-1.874h25.89z" fill="#CBC8C9"/><path d="M57.493 65.914c9.691 0 17.548-7.849 17.548-17.53 0-9.682-7.857-17.53-17.548-17.53-9.692 0-17.548 7.848-17.548 17.53 0 9.681 7.856 17.53 17.548 17.53zM115 132.907c-.26-16.262-4.026-37.079-6.22-43.797-.462-1.427-1.429-2.624-2.713-3.33-4.3-2.393-15.282-7.367-29.396-11.49-4.978-1.63-17.894-1.153-19.178-1.312v59.929H115zm-57.507 0V72.978c-1.285.159-14.2-.317-19.179 1.312-14.113 4.123-25.08 9.097-29.381 11.49-1.285.706-2.251 1.903-2.713 3.33C4.026 95.828.26 116.645 0 132.907h57.493z" fill="#E2E2E2"/><path d="M39.31 39.72c1.558-7.194-.707-11.678-.202-14.777.49-3.1 1.833-7.482 7.533-6.459 2.77.49 12.54-.922 17.389-1.095 4.834-.173 5.844 3.042 6.97 5.795 1.126 2.754 2.973 3.186 3.622 5.478.65 2.293.924 8.362 1.342 11.764 1.314-.793 1.559-2.177 1.559-2.177s1.703-8.405 2.006-10.899c.303-2.494 2.107-9.673.664-13.046-1.458-3.36-7.605-10.971-12.498-12.874C62.79-.473 54.13-.156 51.13.55c-3.002.707-14.864 5.623-16.322 12.557-1.457 6.934.39 15.108 1.083 18.093.692 2.984 2.28 7.683 2.438 8.361.203.865.982.159.982.159z" fill="#A7A7A7"/><path d="M38.718 27.437a19.518 19.518 0 0 0-1.587 2.594c-.231.462-.447.938-.62 1.443a7.49 7.49 0 0 0-.232.75c-.072.259-.13.518-.13.792a3.36 3.36 0 0 1-.303-.778 16.9 16.9 0 0 1-.187-.822 16.588 16.588 0 0 1-.202-1.701c-.029-.577-.043-1.154-.029-1.73.015-.577.058-1.168.116-1.759l3.174 1.21zm-1.342-6.156c-.317.375-.635.764-.938 1.182-.288.418-.577.836-.837 1.283-.26.447-.505.909-.721 1.384-.101.245-.203.49-.289.736a2.777 2.777 0 0 0-.173.778 3.738 3.738 0 0 1-.245-.807c-.058-.274-.087-.563-.116-.837a17.391 17.391 0 0 1 .029-3.445 25.31 25.31 0 0 1 .245-1.744l3.045 1.47zm.534-7.309c-.433.23-.866.476-1.284.764-.419.274-.837.562-1.241.88-.404.317-.794.663-1.155 1.023-.188.188-.36.375-.534.577a2.68 2.68 0 0 0-.447.663c-.029-.274.014-.562.058-.836.043-.274.115-.563.187-.836.145-.548.332-1.082.534-1.63a21.67 21.67 0 0 1 .693-1.57c.26-.52.534-1.024.837-1.529l2.352 2.494zm6.047-6.819c-.477-.13-.967-.245-1.458-.331-.49-.087-.996-.159-1.5-.217a13.564 13.564 0 0 0-1.53-.057c-.26 0-.52.029-.78.057-.26.03-.52.072-.764.173a2.89 2.89 0 0 1 .606-.576c.216-.173.447-.332.678-.476.476-.303.967-.577 1.472-.822a18.817 18.817 0 0 1 1.558-.677 30.914 30.914 0 0 1 1.631-.548l.087 3.474zm23.435-5.305c.534.1 1.068.216 1.602.346.52.144 1.04.303 1.544.476.505.187 1.01.389 1.487.634.245.115.476.245.707.39.23.143.447.302.635.49a3.153 3.153 0 0 0-.736-.246 6.808 6.808 0 0 0-.75-.13c-.506-.072-1.01-.1-1.53-.1-.505-.015-1.01.014-1.516.043-.505.029-.995.1-1.486.173l.043-2.076zM65.026 18.24l-.419-.116-.216-.058-.217-.043-.433-.087-.433-.043a6.062 6.062 0 0 0-1.76.101 4.88 4.88 0 0 0-1.703.721c-.52.36-1.025.85-1.256 1.557a3.03 3.03 0 0 1 .015-1.139c.043-.187.086-.39.159-.577.029-.086.057-.187.1-.288l.13-.274a6.316 6.316 0 0 1 1.472-1.975c.606-.576 1.328-1.052 2.078-1.441l.578-.274c.202-.087.39-.159.591-.231l.303-.115.303-.087.621-.187.087 4.555z" fill="#A7A7A7"/><path d="M60.985 18.11c-.606-.015-1.212 0-1.833.057a13.86 13.86 0 0 0-1.847.346 9.808 9.808 0 0 0-1.804.678 6.06 6.06 0 0 0-.837.49c-.274.187-.534.39-.736.677.072-.346.245-.663.433-.965.188-.303.404-.591.635-.865a11.79 11.79 0 0 1 1.544-1.514 14.257 14.257 0 0 1 1.804-1.24 16.122 16.122 0 0 1 2.006-.98l.635 3.316zm-12.555.245c-.736-.116-1.472-.188-2.179-.159-.707.029-1.414.144-2.034.418a4.215 4.215 0 0 0-.88.534 3.13 3.13 0 0 0-.68.821 3.229 3.229 0 0 0-.273 2.379c-.563-.678-.866-1.658-.78-2.667a4.606 4.606 0 0 1 .39-1.5c.217-.475.52-.937.852-1.326.692-.807 1.544-1.412 2.438-1.903.895-.475 1.819-.821 2.757-1.11l.39 4.513zm20.52-.447a11.318 11.318 0 0 0-1.558.043c-.52.058-1.053.159-1.573.303a7.68 7.68 0 0 0-1.53.605c-.245.13-.49.274-.707.447-.23.173-.447.36-.606.606.044-.303.174-.591.332-.865.145-.274.332-.534.52-.779.375-.49.822-.951 1.298-1.37a11.3 11.3 0 0 1 1.56-1.124c.547-.331 1.14-.62 1.745-.865l.52 2.999zM61.187.277c.794.014 1.587.043 2.381.1.794.058 1.573.145 2.352.246.78.1 1.559.23 2.324.403.39.087.765.173 1.14.274.375.101.75.23 1.097.39a6.037 6.037 0 0 0-1.14-.044c-.376.015-.765.029-1.14.072a38.2 38.2 0 0 0-2.266.289 38.35 38.35 0 0 0-4.43 1.023L61.187.277zm-10.491 3.69c-.433-.23-.88-.461-1.342-.663a16.85 16.85 0 0 0-1.414-.548 13.277 13.277 0 0 0-1.487-.403 7.025 7.025 0 0 0-.765-.13 2.821 2.821 0 0 0-.779 0c.202-.173.462-.303.707-.418.246-.116.505-.217.765-.317a14.87 14.87 0 0 1 1.616-.462A21.022 21.022 0 0 1 51.374.55l-.678 3.417zm29.872 12.211a44.61 44.61 0 0 1 .39 3.07c.086 1.024.13 2.047.13 3.057 0 1.009-.059 2.018-.174 3.027-.029.245-.072.505-.101.75l-.13.735-.087.36-.1.36a3.64 3.64 0 0 1-.275.693c.03-.245.015-.49 0-.721l-.043-.36-.058-.36c-.043-.232-.086-.477-.13-.707-.057-.23-.1-.462-.173-.692a24.56 24.56 0 0 0-.894-2.696 34.19 34.19 0 0 0-1.14-2.552c-.405-.836-.866-1.629-1.328-2.407l4.113-1.557z" fill="#A7A7A7"/><path d="M74.882 74.405c-.433-4.469-2.136-5.16-4.43-5.377v2.335c.072.736-.043 1.457-.318 2.177-1.703 4.368-9.264 8.06-13.29 9.068-.376.101-.736.303-1.04.346a3.963 3.963 0 0 1-.793.044c.62.043 1.226.057 1.818.072.346 0 .693.014 1.025 0 10.462-.058 17.49-3.98 17.028-8.665z" fill="#CBC8C9"/><path d="M40.118 74.405c.433-4.469 2.136-5.16 4.43-5.377v2.335c-.072.736.044 1.457.318 2.177 1.703 4.368 9.265 8.06 13.29 9.068.376.101.737.303 1.04.346.303.044.577.058.794.044-.621.043-1.227.057-1.819.072-.346 0-.693.014-1.024 0-10.463-.058-17.49-3.98-17.029-8.665z" fill="#CBC8C9"/><path d="M115 132.907H57.493V83.055c3.968-1.21 11.3-5.406 12.742-9.774 1.746.13 3.42.317 4.791.576.606.116 1.155.26 1.63.418 14.114 4.124 25.096 9.097 29.397 11.49 1.284.707 2.251 1.903 2.713 3.33 2.208 6.733 5.974 27.55 6.234 43.812zm-115 0h57.493V83.055c-3.969-1.21-11.3-5.406-12.743-9.774-1.746.13-3.42.317-4.79.576a12.95 12.95 0 0 0-1.632.418C24.201 78.413 13.233 83.387 8.933 85.78c-1.285.706-2.251 1.903-2.713 3.33C4.026 95.828.26 116.645 0 132.907z" fill="#A7A7A7"/><path d="M76.47 74.218c-1.516-.88-1.704-1.716-1.704-1.716-.808-3.041-2.352-3.546-4.315-3.633l.145 2.264c.115.72-.101 1.441-.332 2.148-1.458 4.368-8.774 8.549-12.743 9.774a9.737 9.737 0 0 1-1.024.26 4.275 4.275 0 0 1-.794.086c.62 0 1.227-.014 1.818-.029.347-.014.693-.029 1.025-.057 8.947-.563 15.21-3.734 16.38-7.497l.46.216 1.083-1.816z" fill="#A7A7A7"/><path d="M38.53 74.218c1.516-.88 1.703-1.716 1.703-1.716.809-3.041 2.353-3.546 4.315-3.633l-.144 2.264c-.116.72.1 1.441.332 2.148 1.457 4.368 8.774 8.549 12.742 9.774a9.9 9.9 0 0 0 1.025.26c.303.057.563.086.794.086-.62 0-1.227-.014-1.819-.029a23.116 23.116 0 0 1-1.024-.057c-8.947-.563-15.21-3.734-16.38-7.497l-.461.216-1.082-1.816z" fill="#A7A7A7"/></g></svg>