<svg viewBox="0 0 18 20" fill="none" xmlns="http://www.w3.org/2000/svg"><path d="M17.866 16.313c-.45-2.75-1.35-3.438-5.011-3.813l-2.506 4.938L9.9 14.5c.257-.188.45-.438.45-.813 0-.5.064-1.187-1.285-1.187s-1.285.688-1.285 1.188c0 .374.193.624.45.812l-.45 2.938L5.145 12.5c-3.662.375-4.561 1.063-5.011 3.813-.064.312-.128.625-.128 1-.065.687.45 1.062.706 1.187C2.704 19.438 5.402 20 9 20s6.296-.563 8.288-1.5c.257-.125.77-.5.706-1.188 0-.375-.064-.687-.128-1zM14.14 5c0 3.125-2.57 6.25-5.14 6.25S3.86 8.125 3.86 5 5.145 0 9 0c3.855 0 5.14 1.875 5.14 5z" fill="#3DA163"/></svg>