<svg viewBox="0 0 110 62" fill="none" xmlns="http://www.w3.org/2000/svg"><path fill-rule="evenodd" clip-rule="evenodd" d="M94.194 41.227a59.982 59.982 0 0 1-.587 3.507c-1.068-.32-2.243-.904-3.952-.797-1.014.053-2.242.478-2.242 1.38 0 1.01 1.655 1.595 2.563 2.073 1.655.797 3.47 1.86 3.63 4.038.108 1.647-.693 3.134-1.548 3.931-2.35 2.231-7.582 2.444-11.107 1.01.214-1.17.428-2.391.588-3.613 1.388.584 3.257 1.381 5.34 1.115.96-.106 2.082-.69 2.082-1.647-.053-1.168-2.243-1.859-3.364-2.496-1.281-.691-2.777-1.913-2.83-3.666-.053-1.222.427-2.338 1.014-3.082 1.816-2.231 6.515-3.028 10.413-1.753zM51.956 18.276h4.753l-2.937 18.329h-4.753l2.937-18.33zm-16.446 0h7.262c4.645 0 5.82 2.656 5.34 5.79-.428 2.657-2.35 4.41-4.806 5.048l4.592 7.49h-5.98l-3.471-7.224-1.175 7.225h-4.7l2.938-18.33zm4.165 3.666l-.748 4.622h1.389c1.334 0 2.616-1.01 2.83-2.285.213-1.275-.695-2.284-2.03-2.284h-1.441v-.053zm33.961-3.666h4.752l-2.883 18.329h-4.753l2.884-18.33zm8.384 0h10.412l-.64 3.985h-5.66l-.482 3.134h5.394l-.641 3.985H85.01l-.534 3.24h5.66l-.64 3.985H79.082l2.936-18.33zm-59.753 0H32.68l-.641 3.985h-5.66l-.481 3.134h5.393l-.64 3.985h-5.394l-.534 3.24h5.66l-.64 3.985H19.33l2.937-18.33zm38.019 0H70.86l-.64 3.985H64.4l-.482 3.134h5.287l-.64 3.985h-5.287l-1.122 7.225h-4.752l2.883-18.33zm34.923 0h6.194c7.369 0 9.078 5.525 8.49 9.191-.801 5.153-5.446 9.138-11.374 9.138h-6.194l2.884-18.33zm4.111 3.985h.962c3.631 0 5.072 2.55 4.645 4.994-.534 3.293-2.883 5.365-6.034 5.365h-1.281l1.708-10.36zM0 15.779h8.81l1.07 13.335C15.646 19.073 21.573 9.457 27.5 0h2.884C24.082 12.113 17.835 24.28 11.8 36.605H5.393L3.791 21.942C3.417 18.276 2.67 16.735 0 16.363v-.584z" fill="#3A57A7"/><path fill-rule="evenodd" clip-rule="evenodd" d="M3.31 8.235l7.53 3.134.64 8.288h.535l6.781-11.422V7.65H3.311v.585z" fill="#F8981D"/><path fill-rule="evenodd" clip-rule="evenodd" d="M37.966 49.727c1.121 0 1.922 1.01 1.709 2.338-.16 1.275-1.228 2.285-2.403 2.285-1.122 0-1.922-1.01-1.709-2.285.16-1.275 1.282-2.337 2.403-2.337zm-3.845-8.819h3.097l-1.014 7.226c.854-.85 1.976-1.382 3.15-1.382 2.457 0 4.059 2.391 3.631 5.26-.427 2.922-2.776 5.26-5.233 5.26-1.228 0-2.082-.532-2.67-1.488l-.16 1.169h-3.097l2.296-16.045z" fill="#3A57A7"/><path fill-rule="evenodd" clip-rule="evenodd" d="M43.199 47.018h3.684l1.656 5.153 3.204-5.153h3.577L45.976 62h-3.578l3.951-6.322-3.15-8.66zM73.636 57.06l2.723-16.152h4.432L78.068 57.06h-4.432zm-3.685-16.152c-1.548 3.56-2.83 7.385-4.378 10.892l-.48-2.126.053.372c-.32-1.115-.908-2.178-1.656-3.134l-.053-.053a3.414 3.414 0 0 0-.427-.479c-.107-.106-.16-.212-.267-.318a15.601 15.601 0 0 0-3.738-2.975l3.951 13.919h4.753c2.242-5.419 4.645-10.679 6.888-16.098h-4.645z" fill="#3A57A7"/><path fill-rule="evenodd" clip-rule="evenodd" d="M61.621 40.908h-7.208v.372c4.165.797 9.398 4.304 10.786 8.766l-1.548-7.544c-.214-1.169-1.069-1.594-2.03-1.594z" fill="#F8981D"/><path fill-rule="evenodd" clip-rule="evenodd" d="M109.092 57.06h-4.058c-.267-.745-.32-1.701-.587-2.498h-5.5l-1.015 2.497h-4.646l6.034-13.813c.267-.585.748-1.434.962-1.806.32-.532 1.495-.585 1.975-.585h3.364l3.471 16.204zm-6.728-11.689l-2.243 6.003h3.631l-1.388-6.003z" fill="#3A57A7"/></svg>