<svg viewBox="0 0 87 30" fill="none" xmlns="http://www.w3.org/2000/svg"><path d="M38.252 28.586H31.32l4.343-27.092h6.972l-4.382 27.092zm25.259-26.44a17.287 17.287 0 0 0-6.248-1.15c-6.895 0-11.734 3.679-11.772 8.967-.038 3.908 3.467 6.054 6.096 7.357 2.705 1.341 3.619 2.184 3.619 3.372-.038 1.801-2.172 2.644-4.19 2.644-2.782 0-4.268-.421-6.554-1.456l-.914-.421-.914 6.092c1.638.767 4.648 1.418 7.772 1.456 7.314 0 12.077-3.64 12.115-9.273.038-3.104-1.829-5.441-5.867-7.396-2.439-1.226-3.924-2.069-3.924-3.333.038-1.15 1.257-2.338 4-2.338 2.248-.076 3.924.498 5.181 1.035l.686.306.914-5.862zm9.258 16.86c.571-1.571 2.781-7.587 2.781-7.587-.038.076.572-1.571.915-2.606l.495 2.338s1.333 6.476 1.6 7.855h-5.791zm8.61-17.512h-5.372c-1.676 0-2.933.498-3.657 2.261l-10.363 24.87h7.315s1.22-3.335 1.448-4.063h8.953c.19.958.838 4.062.838 4.062h6.438l-5.6-27.13zm-55.889 0l-6.82 18.47-.762-3.755c-1.257-4.292-5.22-9.005-9.638-11.343l6.248 23.681h7.352L32.843 1.494H25.49z" fill="#00579F"/><path d="M12.308 1.494h-11.2l-.115.537c8.762 2.26 14.553 7.663 16.915 14.178L15.47 3.755c-.38-1.724-1.638-2.223-3.162-2.26z" fill="#FAA61A"/></svg>