<svg width="20" height="20" viewBox="0 0 20 20" fill="none" xmlns="http://www.w3.org/2000/svg">
<path d="M7.89247 1.35484C6.98925 0.451613 5.89247 0 4.62366 0C3.35484 0 2.25806 0.451613 1.35484 1.35484C0.451613 2.25806 0 3.35484 0 4.62366C0 5.89247 0.451613 6.98925 1.35484 7.89247C2.25806 8.7957 3.35484 9.24731 4.62366 9.24731C5.89247 9.24731 6.98925 8.7957 7.89247 7.89247C8.7957 6.98925 9.24731 5.89247 9.24731 4.62366C9.24731 3.35484 8.7957 2.25806 7.89247 1.35484ZM4.62366 2.7957C5.11828 2.7957 5.54839 2.96774 5.91398 3.33333C6.27957 3.69892 6.45161 4.12903 6.45161 4.62366C6.45161 5.11828 6.27957 5.54839 5.91398 5.91398C5.54839 6.27957 5.11828 6.45161 4.62366 6.45161C4.12903 6.45161 3.69892 6.27957 3.33333 5.91398C2.96774 5.54839 2.7957 5.11828 2.7957 4.62366C2.7957 4.12903 2.96774 3.69892 3.33333 3.33333C3.69892 2.96774 4.12903 2.7957 4.62366 2.7957ZM18.6452 18.6452C19.5484 17.7419 20 16.6452 20 15.3763C20 14.1075 19.5484 13.0108 18.6452 12.1075C17.7419 11.2043 16.6452 10.7527 15.3763 10.7527C14.1075 10.7527 13.0108 11.2043 12.1075 12.1075C11.2043 13.0108 10.7527 14.1075 10.7527 15.3763C10.7527 16.6452 11.2043 17.7419 12.1075 18.6452C13.0108 19.5484 14.1075 20 15.3763 20C16.6452 20 17.7419 19.5484 18.6452 18.6452ZM17.2043 15.3763C17.2043 15.871 17.0323 16.3011 16.6667 16.6667C16.3011 17.0323 15.871 17.2043 15.3763 17.2043C14.8817 17.2043 14.4516 17.0323 14.086 16.6667C13.7204 16.3011 13.5484 15.871 13.5484 15.3763C13.5484 14.8817 13.7204 14.4516 14.086 14.086C14.4516 13.7204 14.8817 13.5484 15.3763 13.5484C15.871 13.5484 16.3011 13.7204 16.6667 14.086C17.0323 14.4516 17.2043 14.8817 17.2043 15.3763ZM17.5914 4.68817C17.914 4.36559 18.0645 4 18.0645 3.54839C18.0645 3.09677 17.914 2.73118 17.5914 2.4086C17.2688 2.08602 16.9032 1.93548 16.4516 1.93548C16 1.93548 15.6344 2.08602 15.3118 2.4086L2.4086 15.3118C2.08602 15.6344 1.93548 16 1.93548 16.4516C1.93548 16.9032 2.08602 17.2688 2.4086 17.5914C2.73118 17.914 3.09677 18.0645 3.54839 18.0645C4 18.0645 4.36559 17.914 4.68817 17.5914L17.5914 4.68817Z" fill="#9DAFC3"/>
</svg>
