<svg width="16" height="16" viewBox="0 0 16 16" fill="none" xmlns="http://www.w3.org/2000/svg">
<path fill-rule="evenodd" clip-rule="evenodd" d="M14 3H2C1.44772 3 1 3.44772 1 4V14C1 14.5523 1.44772 15 2 15H14C14.5523 15 15 14.5523 15 14V4C15 3.44772 14.5523 3 14 3ZM2 2C0.895431 2 0 2.89543 0 4V14C0 15.1046 0.895431 16 2 16H14C15.1046 16 16 15.1046 16 14V4C16 2.89543 15.1046 2 14 2H2Z" fill="#3DA163"/>
<path d="M4 5H6V7H4V5Z" fill="#3DA163"/>
<path d="M7 5H9V7H7V5Z" fill="#3DA163"/>
<path d="M10 5H12V7H10V5Z" fill="#3DA163"/>
<path d="M4 8H6V10H4V8Z" fill="#3DA163"/>
<path d="M7 8H9V10H7V8Z" fill="#3DA163"/>
<path d="M10 8H12V10H10V8Z" fill="#3DA163"/>
<path d="M3 0H4V4H3V0Z" fill="#3DA163"/>
<path d="M12 0H13V4H12V0Z" fill="#3DA163"/>
<path d="M4 11H6V13H4V11Z" fill="#3DA163"/>
<path d="M7 11H9V13H7V11Z" fill="#3DA163"/>
<path d="M10 11H12V13H10V11Z" fill="#3DA163"/>
</svg>
