<svg viewBox="0 0 21 16" fill="none" xmlns="http://www.w3.org/2000/svg">
<path fill-rule="evenodd" clip-rule="evenodd" d="M18 2H3C2.44772 2 2 2.44772 2 3V13C2 13.5523 2.44772 14 3 14H18C18.5523 14 19 13.5523 19 13V3C19 2.44772 18.5523 2 18 2ZM3 0C1.34315 0 0 1.34315 0 3V13C0 14.6569 1.34315 16 3 16H18C19.6569 16 21 14.6569 21 13V3C21 1.34315 19.6569 0 18 0H3Z" fill="white"/>
<path d="M2 4H19V8H2V4Z" fill="white"/>
<path d="M4 10.5C4 10.2239 4.22386 10 4.5 10H9.5C9.77614 10 10 10.2239 10 10.5C10 10.7761 9.77614 11 9.5 11H4.5C4.22386 11 4 10.7761 4 10.5Z" fill="white"/>
<path d="M14 10.5C14 10.2239 14.2239 10 14.5 10H16.5C16.7761 10 17 10.2239 17 10.5C17 10.7761 16.7761 11 16.5 11H14.5C14.2239 11 14 10.7761 14 10.5Z" fill="white"/>
</svg>
