<svg width="21" height="20" viewBox="0 0 21 20" fill="none" xmlns="http://www.w3.org/2000/svg">
<path d="M12.9853 1.80786L2.70837 12.0848C2.21606 12.7002 2.03145 16.5156 2.70837 17.1925C3.38529 17.8694 7.26222 17.6848 7.8776 17.1925L19.0776 6.11555C19.693 5.50016 19.6314 5.00786 19.0776 4.45401L17.3545 2.73093C16.7391 2.11555 16.1853 2.17709 15.6314 2.73093L7.38529 10.7925C6.83145 11.3463 6.76991 12.5771 7.01606 12.8848C7.32375 13.0694 8.55452 13.0694 9.10837 12.5156L16.4314 5.25401L17.293 6.11555L9.96991 13.3771C8.98529 14.3617 6.95452 14.5463 6.15452 13.7463C5.35452 12.9463 5.53914 10.9155 6.58529 9.93093L14.7084 1.80786C15.7545 0.761703 16.9853 0.700165 18.1545 1.80786L19.8776 3.53093C20.9853 4.63863 20.9853 5.8694 19.8776 6.91555L8.6776 17.9925C7.69299 18.9771 2.89299 19.1002 1.78529 17.9925C0.677601 16.8848 0.800678 12.1463 1.78529 11.1617L12.1238 1.00786L12.9853 1.80786Z" fill="#9DAFC3" stroke="#9DAFC3" stroke-width="0.5" stroke-miterlimit="10"/>
</svg>
