<svg viewBox="0 0 56 11" fill="none" xmlns="http://www.w3.org/2000/svg">
<path d="M10.9558 4.13318H8.19401L9.57489 1.79099C9.90585 1.21945 9.70043 0.49102 9.1184 0.166027C8.53638 -0.158966 7.80599 0.0315471 7.46362 0.603087L6.08274 2.93407L4.70185 0.59188C4.35949 0.0203405 3.61769 -0.170173 3.03566 0.166027C2.46505 0.502227 2.25963 1.21945 2.59058 1.79099L3.97147 4.13318H1.22111C0.547789 4.13318 0 4.6711 0 5.3323C0 5.99349 0.547789 6.53141 1.22111 6.53141H3.98288L2.602 8.8736C2.27104 9.44514 2.46505 10.1736 3.04708 10.5098C3.22967 10.6106 3.44651 10.6667 3.65193 10.6667C4.08559 10.6667 4.48502 10.4425 4.71327 10.0727L6.09415 7.73052L7.47504 10.0727C7.69187 10.4425 8.0913 10.6667 8.53638 10.6667C8.75321 10.6667 8.95863 10.6106 9.14123 10.5098C9.72325 10.1848 9.91726 9.44514 9.58631 8.8736L8.20542 6.5202H10.9558C11.6291 6.5202 12.1769 5.98228 12.1769 5.32109C12.1769 4.6711 11.6291 4.13318 10.9558 4.13318Z" fill="white"/>
<path d="M25.5635 4.13318H22.8017L24.1826 1.79099C24.5136 1.21945 24.3081 0.49102 23.7261 0.166027C23.1441 -0.158966 22.4137 0.0315471 22.0713 0.603087L20.6904 2.94528L19.3096 0.59188C18.9672 0.0203405 18.2254 -0.170173 17.6434 0.166027C17.0728 0.502227 16.8673 1.21945 17.1983 1.79099L18.5792 4.13318H15.8174C15.1441 4.13318 14.5963 4.6711 14.5963 5.3323C14.5963 5.99349 15.1441 6.53141 15.8174 6.53141H18.5792L17.1983 8.8736C16.8673 9.44514 17.0613 10.1736 17.6434 10.5098C17.826 10.6106 18.0428 10.6667 18.2482 10.6667C18.6819 10.6667 19.0813 10.4425 19.3096 10.0727L20.6904 7.73052L22.0713 10.0727C22.2882 10.4425 22.6876 10.6667 23.1327 10.6667C23.3495 10.6667 23.5549 10.6106 23.7375 10.5098C24.3195 10.1848 24.5136 9.44514 24.1826 8.8736L22.8017 6.53141H25.5635C26.2368 6.53141 26.7846 5.99349 26.7846 5.3323C26.7846 4.6711 26.2368 4.13318 25.5635 4.13318Z" fill="white"/>
<path d="M40.1712 4.13318H37.4094L38.7903 1.79099C39.1213 1.21945 38.9158 0.49102 38.3338 0.166027C37.7518 -0.158966 37.0214 0.0315471 36.679 0.603087L35.2981 2.94528L33.9173 0.59188C33.5749 0.0203405 32.8331 -0.170173 32.2511 0.166027C31.6805 0.502227 31.475 1.21945 31.806 1.79099L33.1869 4.13318H30.4251C29.7518 4.13318 29.204 4.6711 29.204 5.3323C29.204 5.99349 29.7518 6.53141 30.4251 6.53141H33.1869L31.806 8.8736C31.475 9.44514 31.669 10.1736 32.2511 10.5098C32.4337 10.6106 32.6505 10.6667 32.8559 10.6667C33.2896 10.6667 33.689 10.4425 33.9173 10.0727L35.2981 7.73052L36.679 10.0727C36.8959 10.4425 37.2953 10.6667 37.7404 10.6667C37.9572 10.6667 38.1626 10.6106 38.3452 10.5098C38.9272 10.1848 39.1213 9.44514 38.7903 8.8736L37.4094 6.53141H40.1712C40.8445 6.53141 41.3923 5.99349 41.3923 5.3323C41.3923 4.6711 40.8445 4.13318 40.1712 4.13318Z" fill="white"/>
<path d="M54.7789 4.13318H52.0171L53.398 1.79099C53.729 1.21945 53.5235 0.49102 52.9415 0.166027C52.3595 -0.158966 51.6291 0.0315471 51.2867 0.603087L49.9058 2.94528L48.525 0.59188C48.1826 0.0203405 47.4408 -0.170173 46.8588 0.166027C46.2882 0.502227 46.0827 1.21945 46.4137 1.79099L47.7946 4.13318H45.0328C44.3595 4.13318 43.8117 4.6711 43.8117 5.3323C43.8117 5.99349 44.3595 6.53141 45.0328 6.53141H47.7946L46.4137 8.8736C46.0827 9.44514 46.2767 10.1736 46.8588 10.5098C47.0414 10.6106 47.2582 10.6667 47.4636 10.6667C47.8973 10.6667 48.2967 10.4425 48.525 10.0727L49.9058 7.73052L51.2867 10.0727C51.5036 10.4425 51.903 10.6667 52.3481 10.6667C52.5649 10.6667 52.7703 10.6106 52.9529 10.5098C53.535 10.1848 53.729 9.44514 53.398 8.8736L52.0171 6.53141H54.7789C55.4522 6.53141 56 5.99349 56 5.3323C56 4.6711 55.4522 4.13318 54.7789 4.13318Z" fill="white"/>
<path d="M10.9558 6.5202H1.22111C0.547789 6.5202 0 5.98228 0 5.3323C0 4.68231 0.547789 4.13318 1.22111 4.13318H10.9558C11.6291 4.13318 12.1769 4.6711 12.1769 5.3323C12.1769 5.98228 11.6291 6.5202 10.9558 6.5202Z" fill="white"/>
<path d="M3.65193 10.6667C2.9786 10.6667 2.43081 10.1287 2.43081 9.46755C2.43081 9.25463 2.48787 9.05291 2.59058 8.8736L7.46362 0.59188C7.82882 0.0315471 8.58203 -0.125346 9.14123 0.22206C9.6776 0.55826 9.8602 1.23066 9.56348 1.77979L4.70185 10.0615C4.48502 10.4313 4.08559 10.6667 3.65193 10.6667Z" fill="white"/>
<path d="M8.52496 10.6667C8.0913 10.6667 7.69187 10.4425 7.47504 10.0727L2.602 1.77979C2.28245 1.19704 2.52211 0.479813 3.11555 0.166027C3.67475 -0.125346 4.3709 0.0651671 4.70185 0.580673L9.57489 8.8624C9.90585 9.43394 9.71184 10.1624 9.12981 10.4986C8.94722 10.6106 8.73038 10.6667 8.52496 10.6667Z" fill="white"/>
<path d="M25.5635 6.5202H15.8288C15.1555 6.5202 14.6077 5.98228 14.6077 5.32109C14.6077 4.6599 15.1555 4.12198 15.8288 4.12198H25.5635C26.2368 4.12198 26.7846 4.6599 26.7846 5.32109C26.7846 5.98228 26.2368 6.5202 25.5635 6.5202Z" fill="white"/>
<path d="M18.2596 10.6667C17.5863 10.6667 17.0385 10.1287 17.0385 9.46755C17.0385 9.25463 17.0956 9.05291 17.1983 8.8736L22.0713 0.59188C22.4365 0.0315471 23.1897 -0.125346 23.7489 0.22206C24.2853 0.55826 24.4679 1.23066 24.1712 1.77979L19.2981 10.0615C19.0927 10.4313 18.6933 10.6667 18.2596 10.6667Z" fill="white"/>
<path d="M23.1327 10.6667C22.699 10.6667 22.2996 10.4425 22.0827 10.0727L17.2097 1.79099C16.9016 1.20825 17.1298 0.479813 17.7233 0.177234C18.2825 -0.114139 18.9786 0.0763738 19.3096 0.59188L24.1826 8.8736C24.5136 9.44514 24.3195 10.1736 23.7375 10.5098C23.5549 10.6106 23.3381 10.6667 23.1327 10.6667Z" fill="white"/>
<path d="M40.1712 6.5202H30.4365C29.7632 6.5202 29.2154 5.98228 29.2154 5.32109C29.2154 4.6599 29.7632 4.12198 30.4365 4.12198H40.1712C40.8445 4.12198 41.3923 4.6599 41.3923 5.32109C41.3923 5.98228 40.8445 6.5202 40.1712 6.5202Z" fill="white"/>
<path d="M32.8673 10.6667C32.194 10.6667 31.6462 10.1287 31.6462 9.46755C31.6462 9.25463 31.7033 9.05291 31.806 8.8736L36.679 0.59188C37.0442 0.0315471 37.7974 -0.125346 38.3566 0.22206C38.893 0.55826 39.0756 1.23066 38.7789 1.77979L33.9058 10.0615C33.7004 10.4313 33.301 10.6667 32.8673 10.6667Z" fill="white"/>
<path d="M37.7404 10.6667C37.3067 10.6667 36.9073 10.4425 36.6904 10.0727L31.8174 1.79099C31.5093 1.20825 31.7375 0.479813 32.331 0.177234C32.8902 -0.114139 33.5863 0.0763738 33.9173 0.59188L38.7903 8.8736C39.1213 9.44514 38.9272 10.1736 38.3452 10.5098C38.1626 10.6106 37.9458 10.6667 37.7404 10.6667Z" fill="white"/>
<path d="M54.7789 6.5202H45.0442C44.3709 6.5202 43.8231 5.98228 43.8231 5.32109C43.8231 4.6599 44.3709 4.12198 45.0442 4.12198H54.7789C55.4522 4.12198 56 4.6599 56 5.32109C56 5.98228 55.4522 6.5202 54.7789 6.5202Z" fill="white"/>
<path d="M47.475 10.6667C46.8017 10.6667 46.2539 10.1287 46.2539 9.46755C46.2539 9.25463 46.311 9.05291 46.4137 8.8736L51.2867 0.59188C51.6519 0.0315471 52.4051 -0.125346 52.9643 0.22206C53.5007 0.55826 53.6833 1.23066 53.3866 1.77979L48.5136 10.0615C48.3081 10.4313 47.9087 10.6667 47.475 10.6667Z" fill="white"/>
<path d="M52.3481 10.6667C51.9144 10.6667 51.515 10.4425 51.2981 10.0727L46.4251 1.79099C46.117 1.20825 46.3452 0.479813 46.9387 0.177234C47.4979 -0.114139 48.194 0.0763738 48.525 0.59188L53.398 8.8736C53.729 9.44514 53.535 10.1736 52.9529 10.5098C52.7703 10.6106 52.5535 10.6667 52.3481 10.6667Z" fill="white"/>
</svg>
