<svg viewBox="0 0 20 20" fill="none" xmlns="http://www.w3.org/2000/svg">
<path d="M10 0C4.5 0 0 4.5 0 10C0 15.5 4.5 20 10 20C15.5 20 20 15.5 20 10C20 4.5 15.5 0 10 0ZM10 17.5C5.875 17.5 2.5 14.125 2.5 10C2.5 5.875 5.875 2.5 10 2.5C14.125 2.5 17.5 5.875 17.5 10C17.5 14.125 14.125 17.5 10 17.5Z" fill="#9DAFC3"/>
<path d="M13.4375 12.9375L11.125 10.4375C11.1875 10.3125 11.1875 10.125 11.1875 10C11.1875 9.6875 11.0625 9.4375 10.9375 9.25L13 4.375L11.875 3.9375L9.8125 8.8125C9.25 8.875 8.75 9.375 8.75 10C8.75 10.6875 9.3125 11.25 10 11.25C10.0625 11.25 10.125 11.25 10.1875 11.1875L12.5 13.75L13.4375 12.9375Z" fill="#9DAFC3"/>
</svg>
