<svg viewBox="0 0 20 20" fill="none" xmlns="http://www.w3.org/2000/svg">
<path d="M10 0C4.5 0 0 4.5 0 10C0 15.5 4.5 20 10 20C15.5 20 20 15.5 20 10C20 4.5 15.5 0 10 0ZM10 17.5C5.875 17.5 2.5 14.125 2.5 10C2.5 5.875 5.875 2.5 10 2.5C14.125 2.5 17.5 5.875 17.5 10C17.5 14.125 14.125 17.5 10 17.5Z" fill="#9DAFC3"/>
<rect x="6" y="8" width="8" height="1" fill="#9DAFC3"/>
<rect x="6" y="11" width="8" height="1" fill="#9DAFC3"/>
<path d="M10.5376 16C11.2502 16 11.9125 15.8333 12.5247 15.5C13.1369 15.1667 13.6287 14.7 14 14.1L13.0215 13.0333C12.7104 13.4778 12.319 13.8389 11.8473 14.1167C11.3656 14.3833 10.9039 14.5167 10.4624 14.5167C9.91039 14.5167 9.46882 14.3667 9.13763 14.0667C8.79642 13.7667 8.62581 13.3722 8.62581 12.8833C8.62581 12.55 8.68602 12.2667 8.80645 12.0333C8.91685 11.8 9.11756 11.5722 9.4086 11.35C9.69964 11.1167 10.1262 10.8444 10.6882 10.5333C11.772 9.94444 12.5348 9.38889 12.9763 8.86667C13.4179 8.33333 13.6387 7.70556 13.6387 6.98333C13.6387 6.39444 13.5032 5.87222 13.2323 5.41667C12.9613 4.96111 12.5749 4.61111 12.0731 4.36667C11.5713 4.12222 10.9943 4 10.3419 4C9.63943 4 9.00717 4.16667 8.44516 4.5C7.87312 4.82222 7.46165 5.25556 7.21075 5.8L8.26452 6.66667C8.50538 6.28889 8.80645 6 9.16774 5.8C9.519 5.58889 9.90036 5.48333 10.3118 5.48333C10.8337 5.48333 11.2452 5.61667 11.5462 5.88333C11.8473 6.13889 11.9978 6.49444 11.9978 6.95C11.9978 7.22778 11.9376 7.46667 11.8172 7.66667C11.6867 7.86667 11.4609 8.08333 11.1398 8.31667C10.8086 8.53889 10.3018 8.83333 9.61935 9.2C8.66595 9.71111 7.99355 10.2389 7.60215 10.7833C7.20072 11.3167 7 11.9722 7 12.75C7 13.3944 7.14552 13.9667 7.43656 14.4667C7.7276 14.9556 8.14409 15.3333 8.68602 15.6C9.21792 15.8667 9.83512 16 10.5376 16Z" fill="#9DAFC3"/>
</svg>
