<svg viewBox="0 0 140 40" fill="none" xmlns="http://www.w3.org/2000/svg">
<path d="M111.2 21.9792C110.3 21.9792 109.5 22.2792 108.9 22.8792C108.3 23.5792 108 24.4792 108 25.3792C108 26.2792 108.3 27.1792 108.9 27.8792C109.5 28.4792 110.3 28.8792 111.2 28.7792C112.1 28.7792 112.9 28.4792 113.5 27.8792C114.1 27.1792 114.4 26.2792 114.4 25.3792C114.4 24.4792 114.1 23.5792 113.5 22.8792C112.8 22.2792 112 21.9792 111.2 21.9792Z" fill="#3DA163"/>
<path d="M46.5999 28.6792H42.5V19.1792H38.9V28.6792H34.7999V19.1792H31.2V31.6792H50.2V19.1792H46.5999V28.6792Z" fill="white"/>
<path d="M25.4001 19.8792C24.3001 19.2792 23.1001 19.0792 21.9001 19.0792C20.7001 19.0792 19.5001 19.3792 18.4001 19.8792C17.4001 20.3792 16.5001 21.1792 16.0001 22.1792C15.4001 23.1792 15.1001 24.2792 15.1001 25.4792C15.1001 26.6792 15.4001 27.7792 16.0001 28.7792C16.6001 29.7792 17.4001 30.5792 18.4001 31.0792C19.5001 31.6792 20.7001 31.8792 21.9001 31.8792C23.1001 31.8792 24.3001 31.5792 25.4001 31.0792C26.4001 30.5792 27.2001 29.7792 27.8001 28.7792C28.4001 27.7792 28.7001 26.6792 28.7001 25.4792C28.7001 24.2792 28.4001 23.1792 27.8001 22.1792C27.2001 21.1792 26.4001 20.3792 25.4001 19.8792ZM24.2001 27.9792C23.6001 28.5792 22.8001 28.9792 21.9001 28.8792C21.0001 28.8792 20.2001 28.5792 19.6001 27.9792C19.0001 27.2792 18.7001 26.3792 18.7001 25.4792C18.7001 24.5792 19.0001 23.6792 19.6001 22.9792C20.2001 22.3792 21.0001 21.9792 21.9001 22.0792C22.8001 22.0792 23.6001 22.3792 24.2001 22.9792C24.8001 23.6792 25.1001 24.5792 25.1001 25.4792C25.1001 26.3792 24.8001 27.2792 24.2001 27.9792Z" fill="white"/>
<path d="M14.6 15.4792H10.7L6.4 21.9792H3.7V15.4792H0V31.6792H3.7V25.1792H6.3L10.5 31.6792H14.8L9.3 23.2792L14.6 15.4792Z" fill="white"/>
<path d="M90.5 23.1792H87.4V19.1792H83.8V31.5792H90C91.4 31.6792 92.9 31.2792 94.1 30.4792C95.1 29.6792 95.6 28.4792 95.5 27.2792C95.6 26.0792 95.1 24.9792 94.2 24.2792C93.1 23.4792 91.8 23.0792 90.5 23.1792ZM91.3 28.6792C90.8 28.9792 90.3 29.1792 89.7 29.0792H87.4V25.4792H89.7C90.3 25.4792 90.8 25.5792 91.3 25.8792C91.7 26.1792 91.9 26.6792 91.8 27.1792C91.9 27.7792 91.7 28.2792 91.3 28.6792Z" fill="white"/>
<path d="M62.5 19.7792C61.5 19.2792 60.3 18.9792 59.2 18.9792C58 18.9792 56.9 19.2792 55.8 19.7792C54.8 20.2792 54 21.0792 53.4 22.0792C52.8 23.0792 52.5 24.1792 52.5 25.3792C52.5 26.5792 52.8 27.6792 53.4 28.6792C54 29.6792 54.9 30.4792 55.9 30.9792C57.1 31.5792 58.3 31.7792 59.6 31.7792C61.5 31.8792 63.4 31.1792 64.7 29.7792L62.8 27.6792C62.4 28.0792 61.9 28.3792 61.4 28.5792C60.8 28.7792 60.3 28.8792 59.7 28.8792C58.9 28.8792 58 28.6792 57.3 28.1792C56.7 27.7792 56.2 27.0792 56.1 26.3792H65.5C65.5 25.7792 65.6 25.4792 65.6 25.3792C65.6 24.1792 65.3 22.9792 64.8 21.9792C64.3 21.0792 63.5 20.2792 62.5 19.7792ZM56.2 24.3792C56.3 23.6792 56.7 22.9792 57.2 22.4792C57.8 21.9792 58.5 21.7792 59.3 21.7792C60 21.7792 60.8 21.9792 61.3 22.4792C61.9 22.9792 62.2 23.6792 62.3 24.3792H56.2Z" fill="white"/>
<path d="M69.4999 24.1792C69.4999 24.9792 69.3999 25.7792 69.2999 26.5792C69.1999 27.0792 68.9999 27.5792 68.7999 28.0792C68.4999 28.4792 68.0999 28.6792 67.5999 28.6792C67.3999 28.6792 67.1999 28.6792 67.0999 28.6792L66.8999 31.6792C67.4999 31.8792 68.0999 31.9792 68.7999 31.9792C69.6999 31.9792 70.4999 31.6792 71.0999 31.0792C71.6999 30.3792 72.0999 29.4792 72.2999 28.5792C72.5999 27.2792 72.6999 25.8792 72.7999 24.4792L72.8999 22.2792H76.7999V31.7792H80.3999V19.1792H69.7999L69.4999 24.1792Z" fill="white"/>
<path d="M139.5 32.9792L139.6 15.6792C139.6 13.6792 138.6 11.7792 137 10.5792L131.7 1.87916C131.3 1.17916 130.3 0.87916 129.6 1.37916L125.7 3.77916L123.9 0.77916C123.5 0.0791603 122.5 -0.22084 121.8 0.17916L106.7 9.37916H104.3C103.5 9.37916 102.8 8.67916 102.7 7.87916C102.7 7.07916 103.4 6.37916 104.3 6.37916H107.2C108.1 6.37916 108.8 5.67916 108.8 4.77916C108.8 3.87916 108.1 3.17916 107.2 3.17916H104.3C102.1 3.17916 100.2 4.67916 99.7001 6.77916C99.6001 6.97916 99.6001 7.17916 99.6001 7.37916V7.87916L99.8001 33.1792C99.8001 36.6792 102.6 39.4792 106.1 39.4792H133.6C136.3 39.5792 138.7 37.8792 139.6 35.3792C139.6 34.6792 139.6 33.7792 139.5 32.9792ZM126 24.0792L129.4 19.2792H133.2L128.9 25.2792L133.5 31.7792H129.2L125.9 27.0792H124V31.7792H120.4V19.1792H124V24.0792H126ZM118 25.4792C118 26.6792 117.7 27.7792 117.1 28.7792C116.5 29.7792 115.7 30.5792 114.7 31.0792C113.6 31.6792 112.4 31.8792 111.2 31.8792C110 31.8792 108.8 31.5792 107.7 31.0792C106.7 30.5792 105.8 29.7792 105.3 28.7792C104.7 27.7792 104.4 26.6792 104.4 25.4792C104.4 24.2792 104.7 23.1792 105.3 22.1792C105.9 21.1792 106.7 20.3792 107.7 19.8792C108.8 19.2792 110 19.0792 111.2 19.0792C112.4 19.0792 113.6 19.3792 114.7 19.8792C115.7 20.3792 116.5 21.1792 117.1 22.1792C117.7 23.0792 118 24.2792 118 25.4792ZM129.8 4.87916L132.6 9.47916H128.9L127.2 6.57916L129.8 4.87916ZM121.9 3.77916L123.6 6.57916C123.6 6.67916 123.7 6.77916 123.7 6.77916C123.7 6.87916 123.8 6.87916 123.8 6.97916L125.3 9.47916H112.6L121.9 3.77916Z" fill="#3DA163"/>
</svg>
