<svg viewBox="0 0 109 39" fill="none" xmlns="http://www.w3.org/2000/svg">
<path fill-rule="evenodd" clip-rule="evenodd" d="M103.066 15.2953C103.066 14.1375 103.974 13.1625 105.124 13.1625C106.275 13.1625 107.183 14.1375 107.183 15.2953C107.183 16.4532 106.275 17.4282 105.124 17.4282C103.974 17.4891 103.066 16.5141 103.066 15.2953ZM105.064 17.0016C105.912 17.0016 106.638 16.2703 106.638 15.3563C106.638 14.4422 105.912 13.711 105.064 13.711C104.216 13.711 103.489 14.4422 103.489 15.3563C103.489 16.2703 104.216 17.0016 105.064 17.0016ZM104.822 16.2703H104.398V14.3813H105.185C105.367 14.3813 105.548 14.3813 105.669 14.5032C105.851 14.625 105.912 14.8078 105.912 14.9907C105.912 15.2344 105.791 15.4172 105.609 15.4782L105.972 16.3313H105.367L105.064 15.6H104.761V16.2703H104.822ZM104.822 15.1735H105.064C105.185 15.1735 105.246 15.1735 105.306 15.1125C105.367 15.0516 105.427 14.9907 105.427 14.8688C105.427 14.8078 105.367 14.686 105.306 14.686C105.246 14.625 105.124 14.625 105.064 14.625H104.822V15.1735Z" fill="#FD0C15"/>
<path fill-rule="evenodd" clip-rule="evenodd" d="M73.6961 0.853162L73.1511 4.57035C71.94 3.90004 71.0317 3.65629 70.0628 3.65629C67.5194 3.65629 65.7028 6.2766 65.7028 9.99379C65.7028 12.5532 66.9139 14.1375 68.9122 14.1375C69.76 14.1375 70.6683 13.8328 71.8189 13.2844L71.2133 17.1844C69.9417 17.55 69.1544 17.6719 68.1856 17.6719C64.4917 17.6719 62.1906 14.8688 62.1906 10.3594C62.1906 4.26566 65.3394 0.0609741 69.9417 0.0609741C70.5472 0.0609741 71.0317 0.121912 71.5161 0.243787L72.9694 0.609412C73.2722 0.731287 73.3933 0.731287 73.6961 0.853162Z" fill="#FD0C15"/>
<path fill-rule="evenodd" clip-rule="evenodd" d="M62.2511 3.41253C62.13 3.35159 62.0089 3.35159 61.8878 3.35159C60.7978 3.35159 60.1317 3.96097 59.0417 5.60628L59.3444 3.53441H56.3167L54.1972 17.3063H57.6489C58.9205 8.83597 59.2233 7.43441 60.8583 7.43441C60.9794 7.43441 60.9794 7.43441 61.1005 7.43441C61.4033 5.78909 61.8272 4.57034 62.4328 3.41253H62.2511Z" fill="#FD0C15"/>
<path fill-rule="evenodd" clip-rule="evenodd" d="M41.7228 17.1235C40.8145 17.4281 40.0272 17.611 39.24 17.611C37.4839 17.611 36.515 16.575 36.515 14.5641C36.515 14.1985 36.5756 13.7719 36.6361 13.2844L36.8783 11.9438L37.06 10.8469L38.5739 1.46252H41.965L41.5411 3.47346H43.2972L42.8128 6.82502H41.0567L40.1483 12.5531C40.0878 12.7969 40.0878 12.9797 40.0878 13.1016C40.0878 13.8328 40.4511 14.1375 41.2383 14.1375C41.6622 14.1375 41.9045 14.0766 42.1467 14.0156L41.7228 17.1235Z" fill="#FD0C15"/>
<path fill-rule="evenodd" clip-rule="evenodd" d="M28.2189 7.86099C28.2189 9.62818 29.0061 10.786 30.8228 11.7001C32.2155 12.3704 32.4578 12.6141 32.4578 13.2235C32.4578 14.0766 31.8522 14.5032 30.52 14.5032C29.4905 14.5032 28.5822 14.3204 27.4316 13.9547L26.9472 17.1235L27.1289 17.1844L27.7344 17.3063C27.9766 17.3672 28.2189 17.4282 28.6428 17.4282C29.43 17.4891 30.0961 17.5501 30.52 17.5501C34.1533 17.5501 35.7883 16.0876 35.7883 12.9797C35.7883 11.0907 35.1222 9.9938 33.3661 9.14068C31.9128 8.47037 31.7916 8.28755 31.7916 7.61724C31.7916 6.88599 32.3366 6.52037 33.4872 6.52037C34.1533 6.52037 35.0616 6.64224 35.97 6.76412L36.4544 3.59537C35.5461 3.41255 34.2139 3.29068 33.4266 3.29068C29.4905 3.22974 28.1583 5.30162 28.2189 7.86099Z" fill="#FD0C15"/>
<path fill-rule="evenodd" clip-rule="evenodd" d="M101.067 17.3063H97.7972L97.9789 15.9657C97.0706 17.0016 96.0411 17.4891 94.83 17.4891C92.2867 17.4891 90.6517 15.2344 90.6517 11.761C90.6517 7.19065 93.195 3.29066 96.2228 3.29066C97.555 3.29066 98.5239 3.90003 99.4928 5.17972L100.219 0.304718H103.611L101.067 17.3063ZM95.9806 14.0766C97.6156 14.0766 98.7056 12.1875 98.7056 9.44534C98.7056 7.67815 98.0394 6.70316 96.8889 6.70316C95.3144 6.70316 94.2245 8.65316 94.2245 11.3344C94.2245 13.1016 94.83 14.0766 95.9806 14.0766Z" fill="#FD0C15"/>
<path fill-rule="evenodd" clip-rule="evenodd" d="M52.6228 17.0016C51.4722 17.3672 50.3217 17.55 49.1106 17.55C45.2956 17.55 43.2972 15.4172 43.2972 11.3344C43.2972 6.58129 45.8406 3.10785 49.2922 3.10785C52.1383 3.10785 53.8945 5.05785 53.8945 8.16566C53.8945 9.14066 53.7733 10.1766 53.4706 11.5782H46.5672C46.5067 11.8219 46.5067 11.8828 46.5067 12.0047C46.5067 13.65 47.5361 14.4422 49.5345 14.4422C50.7456 14.4422 51.8356 14.1375 53.1072 13.5891L52.6228 17.0016ZM50.685 8.77504C50.7456 8.47035 50.7456 8.2266 50.7456 8.10472C50.7456 7.00785 50.14 6.33754 49.1106 6.33754C48.0206 6.33754 47.2334 7.19066 46.9306 8.83597H50.685V8.77504Z" fill="#FD0C15"/>
<path fill-rule="evenodd" clip-rule="evenodd" d="M14.4122 17.3063H11.0211L12.9589 4.26566L8.5383 17.3063H6.23719L5.93441 4.3266L3.87552 17.3063H0.666077L3.33052 0.365662H8.23552L8.41719 10.8469L11.7477 0.365662H17.0766L14.4122 17.3063Z" fill="#FD0C15"/>
<path fill-rule="evenodd" clip-rule="evenodd" d="M23.2533 11.1516C22.89 11.0907 22.7083 11.0907 22.4661 11.0907C20.5283 11.0907 19.5594 11.8219 19.5594 13.1625C19.5594 14.0157 20.0439 14.5641 20.8311 14.5641C22.1633 14.625 23.1928 13.1625 23.2533 11.1516ZM25.7361 17.3063H22.89L22.9506 15.8438C22.1028 17.0016 20.9522 17.4891 19.3172 17.4891C17.44 17.4891 16.1683 15.9657 16.1683 13.711C16.1683 10.3594 18.4089 8.40942 22.2239 8.40942C22.6478 8.40942 23.1322 8.47036 23.6167 8.5313C23.7378 8.0438 23.7378 7.86099 23.7378 7.61724C23.7378 6.70317 23.1322 6.33755 21.5578 6.33755C20.5889 6.33755 19.4989 6.52036 18.7117 6.76411L18.2878 6.94692L17.985 7.0688L18.4694 3.96099C20.165 3.41255 21.3156 3.22974 22.5872 3.22974C25.5544 3.22974 27.0683 4.6313 27.0683 7.25161C27.0683 7.92192 27.0078 8.40942 26.7656 9.9938L26.0389 14.8688L25.9178 15.7219L25.8572 16.4532L25.7967 16.9407L25.7361 17.3063Z" fill="#FD0C15"/>
<path fill-rule="evenodd" clip-rule="evenodd" d="M79.6306 11.1516C79.2673 11.0907 79.0856 11.0907 78.8434 11.0907C76.9056 11.0907 75.8761 11.8219 75.8761 13.1625C75.8761 14.0157 76.3606 14.5641 77.1478 14.5641C78.5406 14.625 79.57 13.1625 79.6306 11.1516ZM82.1134 17.3063H79.2673L79.3278 15.8438C78.48 17.0016 77.3295 17.4891 75.6945 17.4891C73.8173 17.4891 72.5456 15.9657 72.5456 13.711C72.5456 10.3594 74.7861 8.40942 78.6011 8.40942C78.9645 8.40942 79.5095 8.47036 79.9939 8.53129C80.115 8.04379 80.115 7.86098 80.115 7.61723C80.115 6.70317 79.5095 6.33754 77.935 6.33754C76.9661 6.33754 75.8761 6.52036 75.0889 6.76411L74.6045 6.88598L74.3017 7.00786L74.7861 3.90004C76.4817 3.35161 77.6323 3.16879 78.9039 3.16879C81.8711 3.16879 83.385 4.57036 83.385 7.19067C83.385 7.86098 83.3245 8.34848 83.0823 9.93286L82.3556 14.8079L82.2345 15.661L82.1134 16.3313L82.0528 16.8188L82.1134 17.3063Z" fill="#FD0C15"/>
<path fill-rule="evenodd" clip-rule="evenodd" d="M91.6811 3.41253C91.56 3.35159 91.4389 3.35159 91.3178 3.35159C90.2278 3.35159 89.5617 3.96097 88.4717 5.60628L88.7744 3.53441H85.6861L83.5667 17.3063H87.0183C88.29 8.83597 88.5928 7.43441 90.2278 7.43441C90.3489 7.43441 90.3489 7.43441 90.47 7.43441C90.7728 5.78909 91.1967 4.57034 91.8022 3.41253H91.6811Z" fill="#FD0C15"/>
<path fill-rule="evenodd" clip-rule="evenodd" d="M77.2689 30.7125C77.2689 33.8204 76.3 35.7094 74.7861 35.7094C73.6961 35.7704 73.03 34.4907 73.03 32.6625C73.03 30.4688 73.9989 27.9704 75.5733 27.9704C76.845 27.9094 77.2689 29.25 77.2689 30.7125ZM80.66 30.7125C80.66 27.2391 78.9644 24.4969 75.755 24.4969C72.0611 24.4969 69.6389 27.7875 69.6389 32.6016C69.6389 36.075 71.0922 38.9391 74.5439 38.9391C78.1166 39 80.66 36.5016 80.66 30.7125Z" fill="#F3AE12"/>
<path fill-rule="evenodd" clip-rule="evenodd" d="M70.7895 22.1203L70.2445 25.8375C69.0939 25.1672 68.3067 24.9235 67.3983 24.9235C65.0367 24.9235 63.3411 27.5438 63.3411 31.261C63.3411 33.8203 64.4311 35.4047 66.3083 35.4047C67.0956 35.4047 68.0039 35.1 69.0333 34.5516L68.4883 38.4516C67.3378 38.8172 66.5506 38.9391 65.6422 38.9391C62.1906 38.9391 60.0106 36.136 60.0106 31.6266C60.0106 25.5328 62.9778 21.3282 67.2772 21.3282C67.8222 21.3282 68.3067 21.3891 68.7306 21.511L70.0628 21.8766C70.3656 21.9375 70.4867 21.9985 70.7895 22.1203Z" fill="#F3AE12"/>
<path fill-rule="evenodd" clip-rule="evenodd" d="M49.5345 24.6188C49.4134 24.5578 49.2922 24.5578 49.1711 24.5578C48.1417 24.5578 47.5361 25.1672 46.5067 26.8125L46.8095 24.7406H43.9028L41.965 38.5125H45.1745C46.3856 30.1031 46.6884 28.6406 48.2022 28.6406C48.3234 28.6406 48.3234 28.6406 48.4445 28.7016C48.7472 27.0563 49.1106 25.8375 49.6556 24.6797L49.5345 24.6188Z" fill="#F3AE12"/>
<path fill-rule="evenodd" clip-rule="evenodd" d="M91.4389 38.3907H88.4111L88.5928 37.05C87.745 38.086 86.7761 38.5735 85.6256 38.5735C83.3244 38.5735 81.75 36.3188 81.75 32.8454C81.75 28.275 84.1722 24.375 86.9578 24.375C88.2294 24.375 89.1378 24.9844 90.0461 26.2641L90.7728 21.3891H93.9217L91.4389 38.3907ZM86.655 35.161C88.1689 35.161 89.1983 33.2719 89.1983 30.5297C89.1983 28.7625 88.5928 27.8485 87.5028 27.8485C86.0494 27.8485 85.02 29.7375 85.02 32.4797C85.02 34.2469 85.565 35.161 86.655 35.161Z" fill="#F3AE12"/>
<path fill-rule="evenodd" clip-rule="evenodd" d="M19.4989 38.3297C18.4089 38.6953 17.3794 38.8782 16.2289 38.8782C12.6561 38.8782 10.7789 36.7453 10.7789 32.6625C10.7789 27.9703 13.1405 24.436 16.35 24.436C19.0144 24.436 20.6494 26.386 20.6494 29.4938C20.6494 30.4688 20.5283 31.5047 20.2255 32.9063H13.8672C13.8066 33.15 13.8066 33.211 13.8066 33.3328C13.8066 34.9172 14.7755 35.7094 16.6528 35.7094C17.8033 35.7094 18.8328 35.4047 19.9833 34.8563L19.4989 38.3297ZM17.6822 30.1641C17.6822 29.8594 17.7428 29.6157 17.7428 29.4938C17.7428 28.3969 17.1978 27.7266 16.2289 27.7266C15.1994 27.7266 14.4728 28.5797 14.17 30.225H17.6822V30.1641Z" fill="#F3AE12"/>
<path fill-rule="evenodd" clip-rule="evenodd" d="M57.6489 38.3297C56.5589 38.6953 55.5294 38.8782 54.3789 38.8782C50.7456 38.8782 48.9289 36.7453 48.9289 32.6625C48.9289 27.9703 51.2906 24.436 54.5 24.436C57.1644 24.436 58.86 26.386 58.86 29.4938C58.86 30.4688 58.7389 31.5047 58.4361 32.9063H52.0172C51.9567 33.15 51.9567 33.211 51.9567 33.3328C51.9567 34.9172 52.9256 35.7094 54.8028 35.7094C55.9533 35.7094 56.9828 35.4047 58.1333 34.8563L57.6489 38.3297ZM55.8322 30.1641C55.8928 29.8594 55.8928 29.6157 55.8928 29.4938C55.8928 28.3969 55.3478 27.7266 54.3789 27.7266C53.3494 27.7266 52.6228 28.5797 52.32 30.225H55.8322V30.1641Z" fill="#F3AE12"/>
<path fill-rule="evenodd" clip-rule="evenodd" d="M102.339 38.3297C101.249 38.6953 100.159 38.8782 99.0689 38.8782C95.4961 38.8782 93.6189 36.7453 93.6189 32.6625C93.6189 27.9703 96.0411 24.436 99.2506 24.436C101.915 24.436 103.55 26.386 103.55 29.4938C103.55 30.4688 103.429 31.5047 103.126 32.9063H96.7678C96.7072 33.15 96.7072 33.211 96.7072 33.3328C96.7072 34.9172 97.6761 35.7094 99.5533 35.7094C100.704 35.7094 101.733 35.4047 102.884 34.8563L102.339 38.3297ZM100.522 30.1641C100.522 29.8594 100.583 29.6157 100.583 29.4938C100.583 28.3969 100.038 27.7266 99.0689 27.7266C98.0395 27.7266 97.3128 28.5797 97.01 30.225H100.522V30.1641Z" fill="#F3AE12"/>
<path fill-rule="evenodd" clip-rule="evenodd" d="M9.99166 25.2281C9.3861 24.8016 8.47777 24.436 7.32721 24.436C5.99499 24.436 5.0261 24.7406 5.0261 26.0813C5.0261 28.5188 9.74944 27.6047 9.74944 32.8453C9.74944 37.5985 6.6611 38.8781 3.81499 38.8781C2.54332 38.8781 1.08999 38.4516 0.0605469 37.9641L0.847769 34.4906C1.51388 35.1 2.78555 35.4656 3.87555 35.4656C4.90499 35.4656 6.47944 35.161 6.47944 33.3938C6.47944 30.5906 1.7561 31.6266 1.7561 26.7516C1.7561 22.3031 4.54166 20.9625 7.2061 20.9625C8.71999 20.9625 10.1128 21.2063 10.9605 21.7547L9.99166 25.2281Z" fill="#F3AE12"/>
<path fill-rule="evenodd" clip-rule="evenodd" d="M28.885 38.3297C28.2189 38.6344 27.3105 38.8781 26.0389 38.8781C23.2533 38.8781 21.4972 36.075 21.4972 32.6016C21.4972 28.0922 24.0405 24.5578 27.7344 24.5578C28.5216 24.5578 29.7933 24.9235 30.7622 25.4719L30.0355 28.7625C29.3089 28.275 28.5822 28.0313 27.8555 28.0313C26.16 28.0313 24.8883 29.6156 24.8883 32.4188C24.8883 34.0641 25.7966 35.4047 27.1894 35.4047C28.0372 35.4047 28.6427 35.2219 29.3089 34.7953L28.885 38.3297Z" fill="#F3AE12"/>
<path fill-rule="evenodd" clip-rule="evenodd" d="M40.875 34.8563C40.6933 36.0141 40.5722 37.1719 40.4511 38.3907H37.3628L37.605 36.1969H37.5444C36.5755 37.7203 35.6066 38.7563 33.79 38.7563C31.8522 38.7563 30.8228 36.6844 30.8228 34.0641C30.8228 33.15 30.8833 32.6016 31.065 31.2L31.9128 24.8016H35.3644L34.5166 31.2C34.3955 31.8703 34.2744 32.6016 34.2744 33.2719C34.2744 34.0641 34.6378 34.9172 35.6066 34.8563C36.9994 34.8563 37.8472 33.15 38.0894 31.0782L39.0583 24.7407H42.3889L40.875 34.8563Z" fill="#F3AE12"/>
<path fill-rule="evenodd" clip-rule="evenodd" d="M105.548 38.2688H105.003V36.0141H104.277V35.5266H106.275V36.0141H105.548V38.2688Z" fill="#F3AE12"/>
<path fill-rule="evenodd" clip-rule="evenodd" d="M109 38.2688H108.516V35.9531L108.031 38.2688H107.547L107.062 35.9531V38.2688H106.578V35.5266H107.365L107.789 37.7203H107.849L108.273 35.5266H109V38.2688Z" fill="#F3AE12"/>
</svg>
