<svg width="115" height="133" viewBox="0 0 115 133" fill="none" xmlns="http://www.w3.org/2000/svg">
<g opacity="0.5">
<path d="M70.4374 58.2446H44.5483V75.7605H70.4374V58.2446Z" fill="#E2E2E2"/>
<path d="M57.4927 27.4946H79.2978L74.7953 51.3536H57.4927V27.4946Z" fill="#E2E2E2"/>
<path d="M57.4928 27.4946H35.7021L40.2046 51.3536H57.4928V27.4946Z" fill="#E2E2E2"/>
<path d="M57.5794 45.6591C69.8133 45.6591 79.7309 35.7516 79.7309 23.5301C79.7309 11.3085 69.8133 1.401 57.5794 1.401C45.3455 1.401 35.428 11.3085 35.428 23.5301C35.428 35.7516 45.3455 45.6591 57.5794 45.6591Z" fill="#E2E2E2"/>
<path d="M79.9037 40.9393C80.7175 36.8959 80.2179 33.3852 78.788 33.098C77.3581 32.8109 75.5393 35.8559 74.7256 39.8993C73.9118 43.9428 74.4114 47.4534 75.8413 47.7406C77.2712 48.0278 79.09 44.9828 79.9037 40.9393Z" fill="#E2E2E2"/>
<path d="M39.1525 47.7492C40.5824 47.462 41.082 43.9513 40.2683 39.9079C39.4545 35.8645 37.6357 32.8194 36.2058 33.1066C34.7759 33.3938 34.2763 36.9044 35.0901 40.9479C35.9038 44.9913 37.7226 48.0364 39.1525 47.7492Z" fill="#E2E2E2"/>
<path d="M70.4518 58.2446V69.1722C60.6532 69.893 47.1603 67.0098 44.5627 60.1188V58.2446H70.4518Z" fill="#CBC8C9"/>
<path d="M57.4928 65.9141C67.1843 65.9141 75.0408 58.0655 75.0408 48.3838C75.0408 38.7021 67.1843 30.8536 57.4928 30.8536C47.8013 30.8536 39.9448 38.7021 39.9448 48.3838C39.9448 58.0655 47.8013 65.9141 57.4928 65.9141Z" fill="#E2E2E2"/>
<path d="M115 132.907C114.74 116.645 110.974 95.828 108.78 89.11C108.318 87.6827 107.351 86.4862 106.067 85.7798C101.767 83.3867 90.7848 78.413 76.6714 74.29C71.6927 72.6609 58.777 73.1367 57.4927 72.9781V132.907H115Z" fill="#E2E2E2"/>
<path d="M57.4928 132.907V72.9781C56.2084 73.1367 43.2927 72.6609 38.3141 74.29C24.2006 78.413 13.2331 83.3867 8.93274 85.7798C7.64838 86.4862 6.68151 87.6827 6.21972 89.11C4.02622 95.828 0.259756 116.645 0 132.907H57.4928Z" fill="#E2E2E2"/>
<path d="M39.3098 39.7196C40.8683 32.5259 38.6027 28.0424 39.1078 24.9429C39.5984 21.8434 40.9405 17.4608 46.6407 18.4844C49.4114 18.9745 59.1812 17.5617 64.0299 17.3887C68.8643 17.2157 69.8745 20.4306 71.0001 23.1841C72.1257 25.9376 73.9728 26.3701 74.6222 28.6623C75.2716 30.9545 75.5458 37.0238 75.9643 40.426C77.2775 39.6331 77.5229 38.2492 77.5229 38.2492C77.5229 38.2492 79.2257 29.8445 79.5287 27.3504C79.8318 24.8564 81.6357 17.6771 80.1926 14.3037C78.735 10.9446 72.5875 3.33282 67.6954 1.42987C62.7889 -0.473088 54.1303 -0.155929 51.1287 0.550471C48.1271 1.25687 36.2649 6.17284 34.8073 13.1071C33.3498 20.0414 35.197 28.2154 35.8897 31.1996C36.5824 34.1838 38.1698 38.8835 38.3285 39.5611C38.5305 40.426 39.3098 39.7196 39.3098 39.7196Z" fill="#A7A7A7"/>
<path d="M38.7183 27.4369C38.4297 27.8406 38.141 28.2587 37.8813 28.6911C37.6215 29.1236 37.3618 29.5705 37.1309 30.0319C36.9 30.4932 36.6835 30.9689 36.5103 31.4735C36.4238 31.7186 36.3372 31.9781 36.2794 32.2231C36.2073 32.4826 36.1496 32.7421 36.1496 33.016C36.0197 32.7854 35.9187 32.5115 35.8465 32.2376C35.7744 31.9636 35.7166 31.6897 35.6589 31.4158C35.5579 30.8536 35.5002 30.2914 35.4569 29.7147C35.428 29.138 35.4136 28.5614 35.428 27.9847C35.4425 27.4081 35.4857 26.817 35.5435 26.226L38.7183 27.4369Z" fill="#A7A7A7"/>
<path d="M37.3761 21.2811C37.0586 21.656 36.7412 22.0452 36.4381 22.4633C36.1495 22.8813 35.8609 23.2994 35.6011 23.7463C35.3414 24.1932 35.096 24.6546 34.8796 25.1303C34.7786 25.3754 34.6775 25.6204 34.591 25.8655C34.5044 26.1106 34.4322 26.3701 34.4178 26.644C34.3023 26.3989 34.2302 26.1106 34.1725 25.8367C34.1147 25.5628 34.0859 25.2745 34.057 25.0005C33.9993 24.4383 33.9849 23.8617 33.9849 23.285C33.9849 22.7084 34.0282 22.1317 34.0859 21.555C34.1436 20.9784 34.2302 20.4017 34.3312 19.8107L37.3761 21.2811Z" fill="#A7A7A7"/>
<path d="M37.91 13.9721C37.4771 14.2027 37.0442 14.4478 36.6257 14.7361C36.2072 15.01 35.7887 15.2984 35.3846 15.6155C34.9806 15.9327 34.5909 16.2787 34.2301 16.6391C34.0425 16.8265 33.8694 17.0139 33.6962 17.2157C33.523 17.4176 33.3643 17.6194 33.2488 17.8789C33.22 17.605 33.2633 17.3166 33.3066 17.0427C33.3499 16.7688 33.422 16.4805 33.4942 16.2066C33.6385 15.6588 33.8261 15.1254 34.0281 14.5775C34.2302 14.0441 34.4755 13.5251 34.7208 13.0062C34.9806 12.4872 35.2547 11.9826 35.5578 11.478L37.91 13.9721Z" fill="#A7A7A7"/>
<path d="M43.9567 7.15317C43.4805 7.02342 42.9898 6.90809 42.4992 6.82159C42.0085 6.73509 41.5034 6.66301 40.9983 6.60535C40.4933 6.5621 39.9738 6.53327 39.4687 6.54768C39.2089 6.54768 38.9492 6.57651 38.6894 6.60535C38.4296 6.63418 38.1699 6.67743 37.9246 6.77834C38.0833 6.5621 38.2998 6.37469 38.5307 6.20169C38.7471 6.02869 38.978 5.87011 39.2089 5.72595C39.6851 5.42321 40.1758 5.1493 40.6809 4.90422C41.1859 4.65914 41.7055 4.42848 42.2394 4.22665C42.7734 4.02482 43.3217 3.85183 43.8701 3.67883L43.9567 7.15317Z" fill="#A7A7A7"/>
<path d="M67.3924 1.8479C67.9264 1.94881 68.4603 2.06415 68.9942 2.19389C69.5138 2.33806 70.0333 2.49664 70.5383 2.66963C71.0434 2.85704 71.5485 3.05887 72.0247 3.30395C72.2701 3.41928 72.501 3.54903 72.7318 3.69319C72.9627 3.83735 73.1792 3.99593 73.3668 4.18335C73.1359 4.06802 72.8906 3.99593 72.6308 3.93827C72.3855 3.8806 72.1257 3.83735 71.8804 3.80852C71.3753 3.73644 70.8703 3.70761 70.3507 3.70761C69.8457 3.69319 69.3406 3.72202 68.8355 3.75086C68.3304 3.77969 67.8398 3.85177 67.3491 3.92385L67.3924 1.8479Z" fill="#A7A7A7"/>
<path d="M65.0256 18.2393L64.6071 18.1239L64.3907 18.0663L64.1742 18.023C64.0299 17.9942 63.8856 17.9654 63.7413 17.9365L63.3083 17.8933C62.7311 17.85 62.1394 17.8645 61.5478 17.9942C60.9561 18.1239 60.3789 18.3546 59.8449 18.715C59.3254 19.0754 58.8203 19.5656 58.5894 20.272C58.5173 19.9116 58.5317 19.5223 58.6039 19.1331C58.6472 18.9457 58.6904 18.7438 58.7626 18.5564C58.7915 18.4699 58.8203 18.369 58.8636 18.2681L58.9935 17.9942C59.3398 17.259 59.8449 16.5814 60.4655 16.0192C61.0715 15.4425 61.7931 14.9668 62.5435 14.5775L63.1207 14.3036C63.3228 14.2171 63.5104 14.145 63.7124 14.073L64.0155 13.9576L64.3185 13.8711L64.939 13.6837L65.0256 18.2393Z" fill="#A7A7A7"/>
<path d="M60.9849 18.1095C60.3788 18.0951 59.7727 18.1095 59.1522 18.1672C58.5317 18.2393 57.9256 18.3546 57.3051 18.5132C56.699 18.6718 56.0929 18.9024 55.5012 19.1907C55.2126 19.3349 54.924 19.4935 54.6642 19.6809C54.39 19.8683 54.1303 20.0701 53.9282 20.3585C54.0004 20.0125 54.1735 19.6953 54.3611 19.3926C54.5488 19.0898 54.7652 18.8015 54.9961 18.5276C55.4579 17.9798 55.9774 17.4752 56.5402 17.0139C57.103 16.5526 57.7091 16.1489 58.3441 15.7741C58.979 15.3992 59.6573 15.0821 60.35 14.7938L60.9849 18.1095Z" fill="#A7A7A7"/>
<path d="M48.4303 18.3546C47.6943 18.2393 46.9583 18.1672 46.2512 18.196C45.5441 18.2249 44.837 18.3402 44.2165 18.6141C43.899 18.7583 43.6104 18.9312 43.3362 19.1475C43.0764 19.3782 42.8311 19.6521 42.6579 19.9692C42.2971 20.618 42.1528 21.4829 42.3837 22.3479C41.8209 21.6704 41.5179 20.69 41.6045 19.6809C41.6478 19.1763 41.7776 18.6573 41.9941 18.1816C42.2106 17.7059 42.5136 17.2445 42.8455 16.8553C43.5382 16.048 44.3896 15.4425 45.2843 14.9523C46.1791 14.4766 47.1026 14.1306 48.0406 13.8423L48.4303 18.3546Z" fill="#A7A7A7"/>
<path d="M68.9507 17.9077C68.4456 17.8933 67.9117 17.8933 67.3922 17.951C66.8727 18.0086 66.3387 18.1095 65.8192 18.2537C65.2997 18.3979 64.7802 18.5997 64.2895 18.8592C64.0442 18.9889 63.7989 19.1331 63.5824 19.3061C63.3515 19.4791 63.1351 19.6665 62.9763 19.9116C63.0196 19.6088 63.1495 19.3205 63.3082 19.0466C63.4525 18.7727 63.6401 18.5132 63.8277 18.2681C64.2029 17.778 64.6503 17.3166 65.1265 16.8986C65.6027 16.4805 66.1223 16.1201 66.6851 15.7741C67.2334 15.4425 67.8251 15.1542 68.4312 14.9091L68.9507 17.9077Z" fill="#A7A7A7"/>
<path d="M61.187 0.27655C61.9807 0.290967 62.7744 0.319799 63.5681 0.377465C64.3618 0.43513 65.1411 0.521628 65.9203 0.622542C66.6996 0.723457 67.4789 0.853203 68.2437 1.0262C68.6334 1.1127 69.0086 1.1992 69.3838 1.30011C69.759 1.40102 70.1342 1.53077 70.4805 1.68935C70.1053 1.63169 69.7157 1.63169 69.3405 1.6461C68.9653 1.66052 68.5756 1.67493 68.2004 1.71818C67.4356 1.79026 66.6852 1.89118 65.9348 2.00651C65.1844 2.13626 64.434 2.28042 63.698 2.45342C62.962 2.62641 62.226 2.81382 61.5045 3.03007L61.187 0.27655Z" fill="#A7A7A7"/>
<path d="M50.696 3.96715C50.263 3.73648 49.8157 3.50582 49.3539 3.30399C48.8921 3.10217 48.4159 2.91475 47.9397 2.75617C47.449 2.59759 46.9584 2.45343 46.4533 2.35252C46.1935 2.29485 45.9482 2.2516 45.6884 2.22277C45.4287 2.19394 45.1689 2.17952 44.9092 2.22277C45.1112 2.04977 45.371 1.92003 45.6163 1.8047C45.8616 1.68937 46.1214 1.58845 46.3811 1.48754C46.9006 1.30013 47.449 1.15596 47.9974 1.02621C48.5458 0.896468 49.0941 0.80997 49.657 0.723472C50.2198 0.636974 50.797 0.593725 51.3742 0.550476L50.696 3.96715Z" fill="#A7A7A7"/>
<path d="M80.5676 16.1777C80.7264 17.2013 80.8707 18.2249 80.9573 19.2484C81.0439 20.272 81.0872 21.2955 81.0872 22.3047C81.0872 23.3138 81.0294 24.323 80.914 25.3321C80.8851 25.5772 80.8418 25.8367 80.813 26.0818C80.7697 26.3268 80.7264 26.5719 80.6831 26.817L80.5965 27.1774L80.4955 27.5378C80.4233 27.7829 80.3368 28.0135 80.2213 28.2298C80.2502 27.9847 80.2357 27.7396 80.2213 27.509L80.178 27.1486L80.1203 26.7882C80.077 26.5575 80.0337 26.3124 79.9904 26.0818C79.9327 25.8511 79.8894 25.6204 79.8172 25.3898C79.5719 24.4671 79.2689 23.5733 78.9225 22.6939C78.5762 21.8145 78.1865 20.964 77.7825 20.1422C77.3784 19.3061 76.9166 18.5132 76.4548 17.7347L80.5676 16.1777Z" fill="#A7A7A7"/>
<path d="M74.8821 74.4053C74.4492 69.9362 72.7463 69.2443 70.4518 69.028V71.3635C70.524 72.0987 70.4085 72.8195 70.1343 73.5403C68.4315 77.9085 60.8697 81.5991 56.8435 82.6082C56.4683 82.7091 56.1075 82.911 55.8044 82.9542C55.5014 82.9975 55.2272 83.0119 55.0107 82.9975C55.6313 83.0407 56.2374 83.0551 56.829 83.0695C57.1754 83.0695 57.5217 83.0839 57.8536 83.0695C68.316 83.0119 75.3439 79.0906 74.8821 74.4053Z" fill="#CBC8C9"/>
<path d="M40.1182 74.4053C40.5511 69.9362 42.2539 69.2443 44.5484 69.028V71.3635C44.4763 72.0987 44.5917 72.8195 44.8659 73.5403C46.5688 77.9085 54.1306 81.5991 58.1568 82.6082C58.532 82.7091 58.8928 82.911 59.1958 82.9542C59.4989 82.9975 59.7731 83.0119 59.9895 82.9975C59.369 83.0407 58.7629 83.0551 58.1712 83.0695C57.8249 83.0695 57.4785 83.0839 57.1466 83.0695C46.6842 83.0119 39.6564 79.0906 40.1182 74.4053Z" fill="#CBC8C9"/>
<path d="M115 132.907H57.4927V83.0551C61.4612 81.8441 68.7921 77.649 70.2352 73.2808C71.9813 73.4106 73.6553 73.598 75.0262 73.8575C75.6323 73.9728 76.1807 74.117 76.6569 74.2755C90.7704 78.3986 101.752 83.3723 106.053 85.7654C107.337 86.4718 108.304 87.6683 108.766 89.0955C110.974 95.828 114.74 116.645 115 132.907Z" fill="#A7A7A7"/>
<path d="M0 132.907H57.4928V83.0551C53.5243 81.8441 46.1934 77.649 44.7503 73.2808C43.0041 73.4106 41.3301 73.598 39.9592 73.8575C39.3531 73.9728 38.8047 74.117 38.3285 74.2755C24.2006 78.413 13.2331 83.3867 8.93274 85.7798C7.64838 86.4862 6.68151 87.6827 6.21972 89.11C4.02622 95.828 0.259756 116.645 0 132.907Z" fill="#A7A7A7"/>
<path d="M76.4692 74.2179C74.954 73.3385 74.7664 72.5024 74.7664 72.5024C73.9582 69.4605 72.4141 68.9559 70.4515 68.8694L70.5958 71.1328C70.7113 71.8536 70.4948 72.5744 70.2639 73.2808C68.8064 77.649 61.4899 81.8297 57.5214 83.0551C57.1462 83.1704 56.7999 83.2569 56.4968 83.3146C56.1938 83.3723 55.934 83.4011 55.7031 83.4011C56.3237 83.4011 56.9298 83.3867 57.5214 83.3723C57.8678 83.3579 58.2141 83.3434 58.546 83.3146C67.4932 82.7524 73.7562 79.5808 74.9251 75.8181L75.3869 76.0344L76.4692 74.2179Z" fill="#A7A7A7"/>
<path d="M38.5305 74.2179C40.0458 73.3385 40.2334 72.5024 40.2334 72.5024C41.0415 69.4605 42.5856 68.9559 44.5482 68.8694L44.4039 71.1328C44.2885 71.8536 44.5049 72.5744 44.7358 73.2808C46.1933 77.649 53.5098 81.8297 57.4783 83.0551C57.8535 83.1704 58.1999 83.2569 58.5029 83.3146C58.806 83.3723 59.0657 83.4011 59.2966 83.4011C58.6761 83.4011 58.07 83.3867 57.4783 83.3723C57.132 83.3579 56.7856 83.3434 56.4537 83.3146C47.5065 82.7524 41.2435 79.5808 40.0746 75.8181L39.6128 76.0344L38.5305 74.2179Z" fill="#A7A7A7"/>
</g>
</svg>
