<svg width="23" height="31" viewBox="0 0 23 31" fill="none" xmlns="http://www.w3.org/2000/svg">
<path d="M6.02177 30.1875L0.950691 27.1843C0.950691 27.1843 0.249524 26.6089 0.623547 25.9634C1.1269 25.3923 5.74583 20.9923 5.74583 20.9923C5.74583 20.9923 6.37851 20.4956 7.02515 20.8676C7.56973 21.2669 9.09441 22.0579 9.09441 22.0579C9.09441 22.0579 9.63899 22.4572 10.2717 21.9606C12.1424 20.3688 16.2092 13.4996 16.6573 11.0895C16.7727 10.2953 16.1533 10.025 16.1533 10.025C16.1533 10.025 14.6014 9.1323 13.9547 8.76033C13.3353 8.4901 13.5255 7.56676 13.5255 7.56676C13.5255 7.56676 14.9658 1.51034 15.3125 0.763142C15.5572 0.0432879 16.408 0.360563 16.408 0.360563L21.5811 3.33635C26.1572 10.6159 14.6373 30.4961 6.02177 30.1875Z" fill="white"/>
</svg>
