<svg width="18" height="20" viewBox="0 0 18 20" fill="none" xmlns="http://www.w3.org/2000/svg">
<path d="M17.866 16.3125C17.4163 13.5625 16.5168 12.875 12.8548 12.5L10.3492 17.4375L9.89945 14.5C10.1564 14.3125 10.3492 14.0625 10.3492 13.6875C10.3492 13.1875 10.4134 12.5 9.06425 12.5C7.71507 12.5 7.77932 13.1875 7.77932 13.6875C7.77932 14.0625 7.97206 14.3125 8.22904 14.5L7.77932 17.4375L5.14522 12.5C1.48317 12.875 0.583724 13.5625 0.133999 16.3125C0.0697528 16.625 0.00550646 16.9375 0.00550646 17.3125C-0.0587399 18 0.455231 18.375 0.712217 18.5C2.70385 19.4375 5.4022 20 9 20C12.5978 20 15.2961 19.4375 17.2878 18.5C17.5448 18.375 18.0587 18 17.9945 17.3125C17.9945 16.9375 17.9302 16.625 17.866 16.3125ZM14.1397 5C14.1397 8.125 11.5699 11.25 9 11.25C6.43014 11.25 3.86029 8.125 3.86029 5C3.86029 1.875 5.14522 0 9 0C12.8548 0 14.1397 1.875 14.1397 5Z" fill="#3DA163"/>
</svg>
