<?xml version="1.0" encoding="UTF-8" standalone="no"?>
<svg
   xmlns:dc="http://purl.org/dc/elements/1.1/"
   xmlns:cc="http://creativecommons.org/ns#"
   xmlns:rdf="http://www.w3.org/1999/02/22-rdf-syntax-ns#"
   xmlns:svg="http://www.w3.org/2000/svg"
   xmlns="http://www.w3.org/2000/svg"
   xmlns:sodipodi="http://sodipodi.sourceforge.net/DTD/sodipodi-0.dtd"
   xmlns:inkscape="http://www.inkscape.org/namespaces/inkscape"
   width="22"
   height="18"
   viewBox="0 0 22 18"
   fill="none"
   version="1.1"
   id="svg4"
   sodipodi:docname="show-pass.svg"
   inkscape:version="0.92.3 (2405546, 2018-03-11)">
  <metadata
     id="metadata10">
    <rdf:RDF>
      <cc:Work
         rdf:about="">
        <dc:format>image/svg+xml</dc:format>
        <dc:type
           rdf:resource="http://purl.org/dc/dcmitype/StillImage" />
        <dc:title></dc:title>
      </cc:Work>
    </rdf:RDF>
  </metadata>
  <defs
     id="defs8" />
  <sodipodi:namedview
     pagecolor="#ffffff"
     bordercolor="#666666"
     borderopacity="1"
     objecttolerance="10"
     gridtolerance="10"
     guidetolerance="10"
     inkscape:pageopacity="0"
     inkscape:pageshadow="2"
     inkscape:window-width="1920"
     inkscape:window-height="1026"
     id="namedview6"
     showgrid="false"
     showguides="true"
     inkscape:guide-bbox="true"
     inkscape:zoom="26.222222"
     inkscape:cx="16.152888"
     inkscape:cy="8.9982278"
     inkscape:window-x="0"
     inkscape:window-y="0"
     inkscape:window-maximized="1"
     inkscape:current-layer="svg4" />
  <g
     style="fill:none"
     id="g838"
     transform="translate(0,0.5)">
    <path
       id="path827"
       d="m 11,4.5 c 0.7956,0 1.5587,0.31607 2.1213,0.87868 C 13.6839,5.94129 14,6.70435 14,7.5 14,8.29565 13.6839,9.05871 13.1213,9.62132 12.5587,10.1839 11.7956,10.5 11,10.5 10.2044,10.5 9.44129,10.1839 8.87868,9.62132 8.31607,9.05871 8,8.29565 8,7.5 8,6.70435 8.31607,5.94129 8.87868,5.37868 9.44129,4.81607 10.2044,4.5 11,4.5 Z M 11,0 C 16,0 20.27,3.11 22,7.5 20.27,11.89 16,15 11,15 6,15 1.73,11.89 0,7.5 1.73,3.11 6,0 11,0 Z M 2.18,7.5 c 0.80825,1.65031 2.06331,3.0407 3.62248,4.0133 1.55917,0.9725 3.35992,1.488 5.19752,1.488 1.8376,0 3.6383,-0.5155 5.1975,-1.488 C 17.7567,10.5407 19.0117,9.15031 19.82,7.5 19.0117,5.84969 17.7567,4.45925 16.1975,3.48675 14.6383,2.51424 12.8376,1.99868 11,1.99868 9.1624,1.99868 7.36165,2.51424 5.80248,3.48675 4.24331,4.45925 2.98825,5.84969 2.18,7.5 Z"
       inkscape:connector-curvature="0"
       style="fill:#bfc0c5" />
  </g>
</svg>
