<svg viewBox="0 0 110 62" fill="none" xmlns="http://www.w3.org/2000/svg">
<path fill-rule="evenodd" clip-rule="evenodd" d="M94.1941 41.2271C94.0339 42.449 93.8203 43.6179 93.6067 44.7335C92.5388 44.4148 91.364 43.8304 89.6553 43.9366C88.6407 43.9898 87.4126 44.4148 87.4126 45.3179C87.4126 46.3274 89.0679 46.9118 89.9757 47.3899C91.631 48.1868 93.4466 49.2494 93.6067 51.4276C93.7135 53.0746 92.9126 54.5622 92.0582 55.3591C89.7087 57.5904 84.4757 57.8029 80.9514 56.3685C81.165 55.1997 81.3786 53.9778 81.5388 52.7558C82.9271 53.3402 84.7961 54.1371 86.8786 53.8715C87.8398 53.7652 88.9611 53.1808 88.9611 52.2245C88.9077 51.0557 86.7184 50.3651 85.597 49.7275C84.3155 49.0369 82.8203 47.8149 82.7669 46.0617C82.7135 44.8398 83.1941 43.7241 83.7815 42.9803C85.597 40.749 90.2961 39.952 94.1941 41.2271Z" fill="#3A57A7"/>
<path fill-rule="evenodd" clip-rule="evenodd" d="M51.9563 18.2759H56.7087L53.7718 36.6049H49.0194L51.9563 18.2759Z" fill="#3A57A7"/>
<path fill-rule="evenodd" clip-rule="evenodd" d="M35.5096 18.2759H42.7718C47.4174 18.2759 48.5922 20.9323 48.1116 24.0668C47.6844 26.7232 45.7621 28.4764 43.3058 29.1139L47.898 36.6049H41.9174L38.4465 29.3796L37.2718 36.6049H32.5728L35.5096 18.2759ZM39.6747 21.9417L38.9271 26.5638H40.3155C41.6504 26.5638 42.932 25.5544 43.1456 24.2793C43.3592 23.0042 42.4514 21.9948 41.1164 21.9948H39.6747V21.9417Z" fill="#3A57A7"/>
<path fill-rule="evenodd" clip-rule="evenodd" d="M73.6359 18.2759H78.3884L75.5049 36.6049H70.7524L73.6359 18.2759Z" fill="#3A57A7"/>
<path fill-rule="evenodd" clip-rule="evenodd" d="M82.0194 18.2759H92.432L91.7912 22.2605H86.1311L85.6505 25.395H91.0437L90.4029 29.3796H85.0097L84.4757 32.6204H90.1359L89.4951 36.6049H79.0825L82.0194 18.2759Z" fill="#3A57A7"/>
<path fill-rule="evenodd" clip-rule="evenodd" d="M22.267 18.2759H32.6796L32.0388 22.2605H26.3786L25.898 25.395H31.2912L30.6505 29.3796H25.2573L24.7233 32.6204H30.3835L29.7427 36.6049H19.3301L22.267 18.2759Z" fill="#3A57A7"/>
<path fill-rule="evenodd" clip-rule="evenodd" d="M60.2865 18.2759H70.8593L70.2185 22.2605H64.3981L63.9175 25.395H69.2039L68.5632 29.3796H63.2767L62.1554 36.6049H57.403L60.2865 18.2759Z" fill="#3A57A7"/>
<path fill-rule="evenodd" clip-rule="evenodd" d="M95.2087 18.2759H101.403C108.772 18.2759 110.481 23.8012 109.893 27.467C109.092 32.6204 104.447 36.6049 98.5194 36.6049H92.3252L95.2087 18.2759ZM99.3203 22.2605C99.6407 22.2605 100.015 22.2605 100.282 22.2605C103.913 22.2605 105.354 24.8106 104.927 27.2545C104.393 30.5484 102.044 32.6204 98.8932 32.6204C98.466 32.6204 98.0922 32.6204 97.6116 32.6204L99.3203 22.2605Z" fill="#3A57A7"/>
<path fill-rule="evenodd" clip-rule="evenodd" d="M0 15.7789H8.81068L9.87864 29.114C15.6456 19.0728 21.5728 9.45673 27.5 0H30.3835C24.0825 12.1131 17.835 24.2794 11.801 36.605H5.3932L3.79126 21.9417C3.41748 18.2759 2.6699 16.7352 0 16.3633V15.7789Z" fill="#3A57A7"/>
<path fill-rule="evenodd" clip-rule="evenodd" d="M3.31067 8.2348L10.8398 11.3693L11.4806 19.6572H12.0146L18.7961 8.2348V7.65039H3.31067V8.2348Z" fill="#F8981D"/>
<path fill-rule="evenodd" clip-rule="evenodd" d="M37.966 49.7275C39.0873 49.7275 39.8883 50.7369 39.6747 52.0651C39.5145 53.3402 38.4466 54.3496 37.2718 54.3496C36.1504 54.3496 35.3495 53.3402 35.5631 52.0651C35.7233 50.7901 36.8446 49.7275 37.966 49.7275ZM34.1213 40.9083H37.2184L36.2038 48.1337C37.0582 47.2836 38.1796 46.7524 39.3543 46.7524C41.8106 46.7524 43.4126 49.1431 42.9854 52.012C42.5582 54.934 40.2087 57.2717 37.7524 57.2717C36.5242 57.2717 35.6699 56.7404 35.0825 55.7841L34.9223 56.9529H31.8252L34.1213 40.9083Z" fill="#3A57A7"/>
<path fill-rule="evenodd" clip-rule="evenodd" d="M43.199 47.018H46.8835L48.5389 52.1714L51.7427 47.018H55.3204L45.9757 62H42.3981L46.3495 55.6778L43.199 47.018Z" fill="#3A57A7"/>
<path fill-rule="evenodd" clip-rule="evenodd" d="M73.636 57.0591L76.3593 40.9083H80.7913L78.068 57.0591H73.636Z" fill="#3A57A7"/>
<path fill-rule="evenodd" clip-rule="evenodd" d="M69.9515 40.9083C68.4029 44.4679 67.1214 48.2931 65.5728 51.7995L65.0923 49.6744L65.1457 50.0463C64.8253 48.9306 64.2379 47.8681 63.4903 46.9118L63.4369 46.8586C63.3301 46.6992 63.1699 46.5399 63.0097 46.3805C62.9029 46.2742 62.8495 46.168 62.7427 46.0617C61.6748 44.8929 60.3932 43.8835 59.0049 43.0866L62.9563 57.006H67.7088C69.9515 51.587 72.3544 46.3274 74.5971 40.9083C73.0486 40.9083 71.5 40.9083 69.9515 40.9083Z" fill="#3A57A7"/>
<path fill-rule="evenodd" clip-rule="evenodd" d="M61.6213 40.9083H54.4126V41.2802C58.5776 42.0771 63.8107 45.5836 65.199 50.0463L63.6505 42.5022C63.4369 41.3333 62.5825 40.9083 61.6213 40.9083Z" fill="#F8981D"/>
<path fill-rule="evenodd" clip-rule="evenodd" d="M109.092 57.0591C107.757 57.0591 106.369 57.0591 105.034 57.0591C104.767 56.3153 104.714 55.359 104.447 54.5621C102.631 54.5621 100.762 54.5621 98.9466 54.5621L97.932 57.0591C96.3835 57.0591 94.8349 57.0591 93.2864 57.0591L99.3204 43.2459C99.5874 42.6615 100.068 41.8115 100.282 41.4396C100.602 40.9083 101.777 40.8552 102.257 40.8552H105.621L109.092 57.0591ZM102.364 45.371L100.121 51.3744H103.752L102.364 45.371Z" fill="#3A57A7"/>
</svg>
