<svg viewBox="0 0 87 30" fill="none" xmlns="http://www.w3.org/2000/svg">
<path d="M38.2525 28.5858H31.3187L35.6618 1.49414H42.6337L38.2525 28.5858Z" fill="#00579F"/>
<path d="M63.5112 2.14567C62.1397 1.6092 59.9682 0.996094 57.2632 0.996094C50.3675 0.996094 45.5291 4.67473 45.491 9.96276C45.4529 13.8713 48.9579 16.0172 51.5867 17.32C54.2916 18.6612 55.2059 19.5042 55.2059 20.6921C55.1678 22.4931 53.0344 23.3361 51.0152 23.3361C48.2341 23.3361 46.7483 22.9146 44.4624 21.88L43.548 21.4585L42.6337 27.5512C44.2719 28.3176 47.2816 28.969 50.4056 29.0074C57.7204 29.0074 62.4826 25.367 62.5207 19.7341C62.5588 16.6303 60.692 14.2928 56.6537 12.3385C54.2154 11.1123 52.7296 10.2693 52.7296 9.00479C52.7677 7.85521 53.9868 6.66732 56.7299 6.66732C58.9776 6.59068 60.6539 7.16547 61.9111 7.70194L62.5969 8.00849L63.5112 2.14567Z" fill="#00579F"/>
<path d="M72.769 19.006C73.3404 17.4349 75.5501 11.4188 75.5501 11.4188C75.512 11.4954 76.1216 9.84771 76.4645 8.81309L76.9597 11.1506C76.9597 11.1506 78.2931 17.6265 78.5598 19.006C77.4931 19.006 74.1786 19.006 72.769 19.006ZM81.3791 1.49414H76.0073C74.331 1.49414 73.0738 1.99229 72.3499 3.75497L61.9873 28.6241H69.3021C69.3021 28.6241 70.5212 25.2903 70.7498 24.5623C71.5498 24.5623 78.6741 24.5623 79.7028 24.5623C79.8932 25.5202 80.5409 28.6241 80.5409 28.6241H86.9794L81.3791 1.49414Z" fill="#00579F"/>
<path d="M25.4898 1.49414L18.6703 19.9639L17.9083 16.2087C16.6511 11.9169 12.6889 7.20369 8.2696 4.86622L14.5176 28.5474H21.8705L32.8426 1.49414H25.4898Z" fill="#00579F"/>
<path d="M12.308 1.49414H1.10726L0.992966 2.03061C9.75543 4.29144 15.5463 9.69443 17.9083 16.2087L15.4701 3.75497C15.0891 2.03061 13.8319 1.53246 12.308 1.49414Z" fill="#FAA61A"/>
</svg>
